<svg width="35" height="30" viewBox="0 0 35 30" fill="none" xmlns="http://www.w3.org/2000/svg">
<path d="M21.9856 6.10717C22.6602 6.10717 23.2071 5.56031 23.2071 4.88574C23.2071 4.21116 22.6602 3.66431 21.9856 3.66431C21.311 3.66431 20.7642 4.21116 20.7642 4.88574C20.7642 5.56031 21.311 6.10717 21.9856 6.10717Z" fill="#FF7C7C"/>
<path d="M25.65 6.10717C26.3246 6.10717 26.8714 5.56031 26.8714 4.88574C26.8714 4.21116 26.3246 3.66431 25.65 3.66431C24.9754 3.66431 24.4286 4.21116 24.4286 4.88574C24.4286 5.56031 24.9754 6.10717 25.65 6.10717Z" fill="#FF7C7C"/>
<path d="M29.3144 6.10717C29.9889 6.10717 30.5358 5.56031 30.5358 4.88574C30.5358 4.21116 29.9889 3.66431 29.3144 3.66431C28.6398 3.66431 28.0929 4.21116 28.0929 4.88574C28.0929 5.56031 28.6398 6.10717 29.3144 6.10717Z" fill="#FF7C7C"/>
<path d="M31.7572 0H2.44286C1.79517 0.000646719 1.1742 0.258227 0.716212 0.716212C0.258226 1.1742 0.000646719 1.79517 0 2.44286V26.8715C0.000646719 27.5192 0.258226 28.1401 0.716212 28.5981C1.1742 29.0561 1.79517 29.3137 2.44286 29.3143H31.7572C32.4049 29.3137 33.0259 29.0561 33.4838 28.5981C33.9418 28.1401 34.1994 27.5192 34.2001 26.8715V2.44286C34.1994 1.79517 33.9418 1.1742 33.4838 0.716212C33.0259 0.258227 32.4049 0.000646719 31.7572 0ZM31.7572 2.44286V7.32858H2.44286V2.44286H31.7572ZM2.44286 9.77144H9.77144V26.8715H2.44286V9.77144ZM12.2143 26.8715V9.77144H31.7572V26.8715H12.2143Z" fill="#FF7C7C"/>
</svg>
