<svg width="36" height="36" viewBox="0 0 36 36" fill="none" xmlns="http://www.w3.org/2000/svg">
<path d="M33.6299 0H11.2099C10.7405 0 10.2903 0.186481 9.95836 0.51842C9.62642 0.850358 9.43994 1.30056 9.43994 1.77V24.1899C9.43994 24.6594 9.62642 25.1096 9.95836 25.4415C10.2903 25.7734 10.7405 25.9599 11.2099 25.9599H33.6299C34.0993 25.9599 34.5495 25.7734 34.8814 25.4415C35.2134 25.1096 35.3999 24.6594 35.3999 24.1899V1.77C35.3999 1.30056 35.2134 0.850358 34.8814 0.51842C34.5495 0.186481 34.0993 0 33.6299 0ZM33.0399 23.5999H11.7999V2.35999H33.0399V23.5999Z" fill="#FF7C7C"/>
<path d="M7.07996 28.3199V4.71997H4.71997V28.9099C4.71997 29.3793 4.90645 29.8295 5.23839 30.1615C5.57033 30.4934 6.02053 30.6799 6.48997 30.6799H30.6799V28.3199H7.07996Z" fill="#FF7C7C"/>
<path d="M2.35999 33.0399V9.43994H0V33.6299C0 34.0993 0.186481 34.5495 0.51842 34.8814C0.850358 35.2134 1.30056 35.3999 1.77 35.3999H25.9599V33.0399H2.35999Z" fill="#FF7C7C"/>
</svg>
