<svg width="308" height="308" viewBox="0 0 308 308" fill="none" xmlns="http://www.w3.org/2000/svg">
<circle cx="154" cy="154" r="153.027" fill="url(#paint0_linear_94:5)" stroke="url(#paint1_linear_94:5)" stroke-width="1.94521"/>
<g clip-path="url(#clip0_94:5)">
<path d="M203.447 167.464V224.646L213.063 240.234L213.795 241.42H251.736L252.503 167.464H203.447Z" fill="#E6E6E6"/>
<path opacity="0.1" d="M203.447 167.464V224.646L213.063 240.234L213.653 167.464H203.447Z" fill="black"/>
<path d="M111.851 165.939V223.122L102.235 238.71L101.504 239.895H63.5622L62.7955 165.939H111.851Z" fill="#E6E6E6"/>
<path opacity="0.1" d="M111.851 165.939V223.122L102.235 238.71L101.645 165.939H111.851Z" fill="black"/>
<path d="M264 164.796V168.226H57.8133V163.271L76.9756 153.359H247.137L264 164.796Z" fill="#E6E6E6"/>
<path opacity="0.1" d="M264 164.796V168.226H57.8133V163.271L264 164.796Z" fill="black"/>
<path d="M87.3235 181.95H78.1254L74.2929 179.282H91.5391L87.3235 181.95Z" fill="#21243D"/>
<path d="M87.3235 193.006H78.1254L74.2929 190.337H91.5391L87.3235 193.006Z" fill="#21243D"/>
<path d="M87.3235 208.636H78.1254L74.2929 205.967H91.5391L87.3235 208.636Z" fill="#21243D"/>
<path d="M87.3235 224.265H78.1254L74.2929 221.597H91.5391L87.3235 224.265Z" fill="#21243D"/>
<path d="M227.975 183.475H237.173L241.005 180.807H223.759L227.975 183.475Z" fill="#21243D"/>
<path d="M227.975 194.53H237.173L241.005 191.862H223.759L227.975 194.53Z" fill="#21243D"/>
<path d="M227.975 210.16H237.173L241.005 207.492H223.759L227.975 210.16Z" fill="#21243D"/>
<path d="M227.975 225.79H237.173L241.005 223.122H223.759L227.975 225.79Z" fill="#21243D"/>
<path d="M234.238 87.2332H156.805C156.42 87.2332 156.039 87.3085 155.684 87.4548C155.329 87.6012 155.006 87.8158 154.734 88.0863C154.462 88.3568 154.246 88.6779 154.099 89.0314C153.952 89.3848 153.876 89.7636 153.876 90.1462V142.031C153.876 142.414 153.952 142.793 154.099 143.146C154.246 143.499 154.462 143.821 154.734 144.091C155.006 144.362 155.329 144.576 155.684 144.723C156.039 144.869 156.42 144.944 156.805 144.944H186.199L185.098 151.938C185.098 151.938 178.804 155.264 183.23 155.362C187.655 155.459 208.502 155.362 208.502 155.362C208.502 155.362 212.534 155.362 206.142 151.84L205.106 144.944H234.238C234.623 144.944 235.004 144.869 235.359 144.723C235.714 144.576 236.037 144.362 236.309 144.091C236.581 143.821 236.797 143.499 236.944 143.146C237.091 142.793 237.167 142.414 237.167 142.031V90.1462C237.167 89.7636 237.091 89.3848 236.944 89.0314C236.797 88.6779 236.581 88.3568 236.309 88.0863C236.037 87.8158 235.714 87.6012 235.359 87.4548C235.004 87.3085 234.623 87.2332 234.238 87.2332V87.2332Z" fill="#21243D"/>
<path d="M234.364 90.3144H156.679V133.549H234.364V90.3144Z" fill="#F2F2F2"/>
<path d="M195.522 89.4341C195.793 89.4341 196.013 89.2151 196.013 88.945C196.013 88.6749 195.793 88.4559 195.522 88.4559C195.25 88.4559 195.03 88.6749 195.03 88.945C195.03 89.2151 195.25 89.4341 195.522 89.4341Z" fill="#F2F2F2"/>
<path d="M195.522 142.841C196.553 142.841 197.39 142.009 197.39 140.983C197.39 139.956 196.553 139.124 195.522 139.124C194.49 139.124 193.653 139.956 193.653 140.983C193.653 142.009 194.49 142.841 195.522 142.841Z" fill="#F2F2F2"/>
<path d="M192.61 160.644V161.622H139.705V160.839L139.778 160.644L141.082 157.122H191.528L192.61 160.644Z" fill="#21243D"/>
<path d="M212.97 159.686C212.873 160.096 212.509 160.528 211.687 160.937C208.737 162.404 202.739 160.546 202.739 160.546C202.739 160.546 198.117 159.763 198.117 157.709C198.247 157.621 198.382 157.541 198.522 157.469C199.762 156.817 203.875 155.206 211.166 157.538C211.704 157.705 212.183 158.018 212.552 158.441C212.716 158.601 212.839 158.797 212.912 159.014C212.984 159.23 213.004 159.46 212.97 159.686Z" fill="#21243D"/>
<path opacity="0.1" d="M212.97 159.686C209.359 161.062 206.14 161.165 202.837 158.883C201.588 157.964 200.075 157.469 198.522 157.469C199.762 156.817 203.875 155.206 211.166 157.538C211.704 157.705 212.183 158.018 212.552 158.441C212.716 158.601 212.839 158.797 212.912 159.014C212.984 159.23 213.004 159.46 212.97 159.686Z" fill="black"/>
<path d="M208.442 158.883C209.148 158.883 209.72 158.708 209.72 158.492C209.72 158.276 209.148 158.1 208.442 158.1C207.736 158.1 207.164 158.276 207.164 158.492C207.164 158.708 207.736 158.883 208.442 158.883Z" fill="#F2F2F2"/>
<path opacity="0.1" d="M192.61 160.644V161.622H139.705V160.839L139.778 160.644H192.61Z" fill="black"/>
<path d="M72.4158 50C71.8789 49.9562 71.3412 50.0757 70.8741 50.3426C70.4155 50.6551 70.1264 51.2024 69.8313 51.7118C68.7031 53.6825 67.1757 55.3987 65.3459 56.7516C64.0131 57.7228 62.3187 58.9337 62.5467 60.7244C62.667 61.3157 62.8866 61.8827 63.1963 62.4014C64.4258 64.8702 67.781 66.778 67.4509 69.5951C68.6725 67.561 67.0386 66.5551 68.2601 64.521C68.8419 63.5522 69.8524 62.4587 70.7307 63.0671C71.0248 63.2708 71.2179 63.6361 71.5241 63.8149C72.2548 64.2413 73.0321 63.426 73.6788 62.8485C75.909 60.8571 79.0805 61.3788 81.8558 61.9993C83.166 62.2922 84.6051 62.6765 85.3796 63.9221C86.3979 65.5598 84.4121 67.3285 83.9103 69.1801C83.8694 69.3379 83.8674 69.5031 83.9047 69.6618C83.942 69.8205 84.0173 69.9678 84.1243 70.0912C84.2313 70.2146 84.3667 70.3104 84.519 70.3704C84.6713 70.4304 84.836 70.4528 84.9989 70.4357C85.8316 70.354 86.8181 70.287 86.8673 69.9235C87.915 69.9606 89.1988 69.8426 89.6477 68.7574C89.7849 68.3281 89.8574 67.8809 89.8629 67.4304C90.0276 65.6076 90.8054 63.9446 91.3207 62.2097C91.8359 60.4748 92.0599 58.4416 91.1904 56.9034C90.8801 56.3916 90.4963 55.9277 90.0512 55.5262C85.1168 50.7763 78.6292 49.993 72.4158 50Z" fill="#F0F0F0"/>
<path d="M68.5241 73.1533C68.5241 73.1533 69.5972 82.0488 65.6624 82.7604C61.7275 83.472 69.2395 95.5698 69.2395 95.5698L87.1252 97.7047L82.8326 83.472C82.8326 83.472 79.9709 82.4046 81.7595 75.2882C83.548 68.1718 68.5241 73.1533 68.5241 73.1533Z" fill="#FFB8B8"/>
<path d="M57.6138 225.977L59.0448 245.547H66.5565L64.4105 225.977H57.6138Z" fill="#FFB8B8"/>
<path d="M112.702 188.972L113.775 205.34L122.002 201.782L118.783 188.261L112.702 188.972Z" fill="#FFB8B8"/>
<path d="M52.2481 151.255C52.2481 151.255 52.6059 171.893 54.7521 178.653C56.8984 185.414 56.5407 185.77 56.183 186.837C55.8253 187.905 55.4676 187.193 55.4676 188.972C55.4676 190.751 54.7521 218.861 55.4676 221.352C56.183 223.842 53.3213 228.112 55.4676 228.468C57.6138 228.824 67.6298 228.468 67.9875 226.333C68.3452 224.198 65.1258 223.486 66.5567 222.063C67.9875 220.64 70.1338 191.463 70.1338 191.463L75.1418 171.181L84.4423 160.507H104.116L110.198 183.991C110.198 183.991 107.694 190.751 109.482 190.751C111.271 190.751 122.002 192.886 122.002 185.058C122.002 177.23 118.425 154.102 117.71 153.39C116.994 152.679 118.067 150.188 116.994 149.12C115.921 148.053 103.401 140.581 98.7508 139.158C94.1006 137.734 87.577 136.04 87.577 136.04L52.2481 151.255Z" fill="#21243D"/>
<path d="M122.002 198.935C122.002 198.935 116.636 197.156 114.132 202.493C111.628 207.83 112.702 209.254 112.702 209.254C112.702 209.254 120.929 212.1 122.36 210.677C122.982 210.058 124.959 209.843 126.994 209.797C130.093 209.728 130.918 205.367 127.991 204.351C127.903 204.321 127.815 204.295 127.726 204.272C124.864 203.561 122.002 198.935 122.002 198.935Z" fill="#21243D"/>
<path d="M76.5726 79.0243C82.4994 79.0243 87.304 74.2452 87.304 68.3498C87.304 62.4544 82.4994 57.6752 76.5726 57.6752C70.6458 57.6752 65.8412 62.4544 65.8412 68.3498C65.8412 74.2452 70.6458 79.0243 76.5726 79.0243Z" fill="#FFB8B8"/>
<path d="M62.6218 87.2081C62.6218 87.2081 80.1498 90.7663 84.4423 85.0732C88.7349 79.3801 90.5234 101.085 90.5234 101.085L92.6697 123.857L89.4503 136.311C89.4503 136.311 72.6378 149.832 67.2721 150.9C61.9064 151.967 53.679 152.679 53.679 152.679C53.679 152.679 56.183 113.183 56.183 112.471C56.183 111.76 62.6218 87.2081 62.6218 87.2081Z" fill="#FF7C7C"/>
<path d="M67.9525 80.5349C67.9525 80.5349 64.0527 78.3127 62.9795 80.4476C61.9064 82.5825 51.8904 87.9198 50.8173 87.9198C49.7442 87.9198 52.9636 117.453 51.5327 121.011C50.1019 124.569 43.3053 150.544 47.2402 152.679C51.175 154.814 48.3133 150.544 52.2481 155.881C56.183 161.218 75.4995 161.218 76.5726 159.083C77.6458 156.948 67.9875 140.937 69.7761 125.992C71.5646 111.048 74.4264 90.4105 71.9224 87.5639C69.4184 84.7174 67.9525 80.5349 67.9525 80.5349Z" fill="#21243D"/>
<path d="M80.8652 82.9383L81.3635 81.2327C81.3635 81.2327 96.2469 86.1407 96.9623 89.343C97.6777 92.5454 97.32 114.962 94.816 116.741C92.312 118.52 88.7349 121.367 91.2389 125.636C93.7429 129.906 96.6046 134.532 98.7509 134.888C100.897 135.244 104.832 137.734 103.759 140.225C102.686 142.716 89.808 138.09 89.808 138.09C89.808 138.09 81.2229 131.685 81.5806 121.722C81.9383 111.76 80.8652 82.9383 80.8652 82.9383Z" fill="#21243D"/>
<path d="M93.3851 124.925L84.8 140.937C84.8 140.937 72.2801 153.746 79.4343 155.169C86.5886 156.593 90.5234 143.427 90.5234 143.427L99.824 130.262L93.3851 124.925Z" fill="#FFB8B8"/>
<path d="M72.9386 52.793C72.506 52.7612 72.0728 52.8447 71.6836 53.0352C71.3317 53.2908 71.0416 53.6214 70.8347 54.0029C69.8806 55.4305 68.6368 56.6438 67.1834 57.565C66.0984 58.2514 64.7191 59.1073 64.9047 60.3729C65.0055 60.7972 65.1848 61.1992 65.4335 61.5582C66.4379 63.3208 66.8377 65.3608 66.5725 67.3695L69.5557 63.0563C70.0293 62.3716 70.8519 61.5988 71.5669 62.0287C71.8063 62.1727 71.9635 62.4309 72.2127 62.5573C72.8075 62.8587 73.4403 62.2824 73.9667 61.8743C75.7822 60.4667 78.364 60.8355 80.6231 61.274C81.6897 61.4811 82.8612 61.7527 83.4916 62.6331C84.5394 64.0961 83.4453 66.21 84.0568 67.9002C84.228 67.7809 84.3734 67.6288 84.4843 67.4526C84.5953 67.2765 84.6695 67.08 84.7027 66.8748C85.5556 66.901 86.6006 66.8176 86.966 66.0506C87.0772 65.75 87.1364 65.4329 87.1412 65.1127C87.2754 63.8243 87.9085 62.649 88.3279 61.4227C88.7474 60.1965 88.9297 58.7595 88.2219 57.6723C87.963 57.3039 87.6504 56.9759 87.2946 56.6989C83.2778 53.3417 77.9966 52.788 72.9386 52.793Z" fill="#F0F0F0"/>
<path d="M93.3851 87.9198L96.718 88.7997C96.718 88.7997 104.474 108.557 102.686 122.078C100.897 135.599 99.824 132.753 99.824 132.753C99.824 132.753 96.9623 126.348 90.5234 127.771L93.3851 87.9198Z" fill="#21243D"/>
<path d="M58.1094 242.961C57.2468 244.127 57.4198 245.794 56.6557 247.026C55.9933 248.094 54.7451 248.654 53.9166 249.6C53.6523 249.915 53.4166 250.252 53.2124 250.608C52.4439 251.888 51.8192 253.529 52.5761 254.817C53.185 255.852 54.4648 256.257 55.6385 256.533C57.1221 256.881 58.6635 257.16 60.1641 256.894C61.6648 256.628 63.1314 255.714 63.6665 254.294C63.7716 253.937 63.8966 253.586 64.0409 253.243C64.8543 251.65 67.4056 251.633 68.238 250.05C68.8205 248.942 68.285 247.603 67.7498 246.471L66.1149 243.017C65.5723 241.87 63.373 242.529 62.2264 242.255C60.731 241.896 59.1852 241.502 58.1094 242.961Z" fill="#21243D"/>
<path d="M46.167 132.041L61.191 155.169C61.191 155.169 70.4915 166.911 73.3532 161.574C76.2149 156.237 63.3372 147.341 63.3372 147.341L53.679 129.551L46.167 132.041Z" fill="#FFB8B8"/>
<path d="M53.679 88.6314L50.8173 87.9198C50.8173 87.9198 45.0939 89.6989 43.663 97.171C42.2322 104.643 43.3053 134.532 45.0939 134.888C46.8824 135.244 53.9276 129.684 55.0553 130.862C56.183 132.041 52.6059 125.992 53.679 122.79C54.7521 119.588 53.679 88.6314 53.679 88.6314Z" fill="#21243D"/>
<path d="M188.169 104.514H178.923V106.728H188.169V104.514Z" fill="#FF7C7C"/>
<path d="M220.185 104.514H216.932V106.728H220.185V104.514Z" fill="#FF7C7C"/>
<path d="M226.691 104.514H223.438V106.728H226.691V104.514Z" fill="#FF7C7C"/>
<path d="M213.508 104.514H191.422V106.728H213.508V104.514Z" fill="#FF7C7C"/>
<path d="M176.526 118.82H167.281V121.034H176.526V118.82Z" fill="#FF7C7C"/>
<path d="M208.543 118.82H205.29V121.034H208.543V118.82Z" fill="#FF7C7C"/>
<path d="M215.049 118.82H211.796V121.034H215.049V118.82Z" fill="#FF7C7C"/>
<path d="M201.866 118.82H179.779V121.034H201.866V118.82Z" fill="#FF7C7C"/>
<path d="M214.707 109.453H205.461V111.667H214.707V109.453Z" fill="#FF7C7C"/>
<path d="M227.205 109.453H217.96V111.667H227.205V109.453Z" fill="#FF7C7C"/>
<path d="M170.534 109.453H167.281V111.667H170.534V109.453Z" fill="#FF7C7C"/>
<path d="M177.04 109.453H173.787V111.667H177.04V109.453Z" fill="#FF7C7C"/>
<path d="M202.379 109.453H180.293V111.667H202.379V109.453Z" fill="#FF7C7C"/>
<path d="M195.531 114.221H186.285V116.435H195.531V114.221Z" fill="#FF7C7C"/>
<path d="M183.032 114.221H173.787V116.435H183.032V114.221Z" fill="#FF7C7C"/>
<path d="M170.534 114.221H167.281V116.435H170.534V114.221Z" fill="#FF7C7C"/>
<path d="M227.205 114.221H223.952V116.435H227.205V114.221Z" fill="#FF7C7C"/>
<path d="M220.699 114.221H198.613V116.435H220.699V114.221Z" fill="#FF7C7C"/>
</g>
<defs>
<linearGradient id="paint0_linear_94:5" x1="154" y1="0" x2="154" y2="308" gradientUnits="userSpaceOnUse">
<stop stop-color="#FFD082"/>
<stop offset="1" stop-color="#88E1F2"/>
</linearGradient>
<linearGradient id="paint1_linear_94:5" x1="154" y1="0" x2="154" y2="308" gradientUnits="userSpaceOnUse">
<stop stop-color="#FFD082"/>
<stop offset="1" stop-color="#88E1F2"/>
</linearGradient>
<clipPath id="clip0_94:5">
<rect width="221" height="207" fill="white" transform="translate(43 50)"/>
</clipPath>
</defs>
</svg>
