<svg width="35" height="35" viewBox="0 0 35 35" fill="none" xmlns="http://www.w3.org/2000/svg">
<path d="M17.675 24.5437C17.675 24.7362 17.8237 24.8937 18.0031 24.8937H26.0969C26.2762 24.8937 26.425 24.7362 26.425 24.5437V22.4438C26.425 22.2512 26.2762 22.0938 26.0969 22.0938H18.0031C17.8237 22.0938 17.675 22.2512 17.675 22.4438V24.5437ZM9.14812 24.8106L17.5481 17.7669C17.7144 17.6269 17.7144 17.3687 17.5481 17.2287L9.14812 10.1894C9.09742 10.1463 9.0354 10.1186 8.96943 10.1097C8.90347 10.1007 8.83633 10.1109 8.77599 10.139C8.71564 10.1671 8.66463 10.212 8.629 10.2682C8.59338 10.3244 8.57463 10.3897 8.575 10.4563V13.1994C8.575 13.3044 8.61875 13.4006 8.70187 13.4662L13.5056 17.5L8.70187 21.5338C8.66277 21.5665 8.63119 21.6073 8.60929 21.6533C8.5874 21.6994 8.5757 21.7496 8.575 21.8006V24.5437C8.575 24.8412 8.92062 25.0031 9.14812 24.8106ZM33.6 0H1.4C0.625625 0 0 0.625625 0 1.4V33.6C0 34.3744 0.625625 35 1.4 35H33.6C34.3744 35 35 34.3744 35 33.6V1.4C35 0.625625 34.3744 0 33.6 0ZM31.85 31.85H3.15V3.15H31.85V31.85Z" fill="#FF7C7C"/>
</svg>
