<svg width="21" height="19" viewBox="0 0 21 19" fill="none" xmlns="http://www.w3.org/2000/svg">
<path d="M3.72549 16.2685C3.94372 15.9764 4.027 15.6518 3.97533 15.2946C3.92366 14.9374 3.75179 14.6497 3.45974 14.4314C3.16769 14.2132 2.84306 14.1299 2.48586 14.1816C2.12866 14.2333 1.84094 14.4051 1.62271 14.6972C1.40447 14.9892 1.32119 15.3139 1.37286 15.6711C1.42454 16.0283 1.5964 16.316 1.88845 16.5342C2.18051 16.7525 2.50513 16.8357 2.86233 16.7841C3.21954 16.7324 3.50725 16.5605 3.72549 16.2685ZM13.1532 3.65179C13.3714 3.35973 13.4547 3.03511 13.403 2.67791C13.3514 2.3207 13.1795 2.03299 12.8875 1.81475C12.5954 1.59652 12.2708 1.51324 11.9136 1.56491C11.5564 1.61659 11.2687 1.78845 11.0504 2.0805C10.8322 2.37255 10.7489 2.69718 10.8006 3.05438C10.8522 3.41158 11.0241 3.6993 11.3162 3.91753C11.6082 4.13577 11.9328 4.21905 12.29 4.16738C12.6472 4.1157 12.935 3.94384 13.1532 3.65179ZM19.1149 10.2913C19.3332 9.99921 19.4165 9.67458 19.3648 9.31738C19.3131 8.96018 19.1412 8.67246 18.8492 8.45423C18.5571 8.23599 18.2325 8.15271 17.8753 8.20438C17.5181 8.25606 17.2304 8.42792 17.0122 8.71997C16.7939 9.01203 16.7106 9.33665 16.7623 9.69385C16.814 10.0511 16.9859 10.3388 17.2779 10.557C17.57 10.7752 17.8946 10.8585 18.2518 10.8068C18.609 10.7552 18.8967 10.5833 19.1149 10.2913ZM20.1663 11.0769C19.8826 11.4566 19.5245 11.7379 19.0918 11.921C18.6592 12.104 18.2141 12.1668 17.7564 12.1093C16.176 14.1939 14.2216 15.0887 11.8932 14.7939C11.1967 14.7058 10.2346 14.4477 9.00707 14.0197C7.85426 13.6134 7.04179 13.4102 6.56966 13.4101C6.09752 13.41 5.67323 13.6619 5.29677 14.1657L5.08399 14.4504C5.26885 14.873 5.33481 15.3177 5.28186 15.7845C5.22891 16.2512 5.06058 16.6744 4.77688 17.0541C4.34041 17.6382 3.76497 17.9819 3.05057 18.0853C2.33617 18.1886 1.68692 18.0221 1.10281 17.5856C0.518705 17.1491 0.174979 16.5737 0.0716324 15.8593C-0.0317143 15.1449 0.134847 14.4956 0.571315 13.9115C0.85502 13.5319 1.21318 13.2505 1.6458 13.0675C2.07842 12.8844 2.52356 12.8216 2.98121 12.8792L9.69191 3.89853C9.50705 3.47594 9.44109 3.03126 9.49404 2.5645C9.547 2.09774 9.71532 1.67453 9.99903 1.29486C10.4355 0.710753 11.0109 0.367027 11.7253 0.26368C12.4397 0.160334 13.089 0.326895 13.6731 0.763363C14.2572 1.19983 14.6009 1.77527 14.7043 2.48967C14.8076 3.20407 14.6411 3.85332 14.2046 4.43743C13.9209 4.8171 13.5627 5.09846 13.1301 5.28152C12.6975 5.46457 12.2523 5.52734 11.7947 5.46982L7.72735 10.913C8.26348 11.0177 8.98117 11.2297 9.88043 11.549C10.3748 11.7249 10.7747 11.8559 11.0802 11.942C11.3856 12.028 11.7276 12.1072 12.106 12.1794C12.4844 12.2517 12.8075 12.2684 13.0754 12.2297C13.3433 12.1909 13.6303 12.1152 13.9363 12.0026C14.2424 11.8899 14.5342 11.7126 14.8117 11.4705C15.0893 11.2285 15.37 10.9177 15.6537 10.538C15.4688 10.1154 15.4028 9.67074 15.4558 9.20397C15.5087 8.73721 15.6771 8.314 15.9608 7.93433C16.3972 7.35022 16.9727 7.0065 17.6871 6.90315C18.4015 6.79981 19.0507 6.96637 19.6348 7.40283C20.2189 7.8393 20.5627 8.41474 20.666 9.12914C20.7694 9.84354 20.6028 10.4928 20.1663 11.0769Z" fill="#FFD082"/>
</svg>
