<svg width="30" height="31" viewBox="0 0 30 31" fill="none" xmlns="http://www.w3.org/2000/svg">
<path d="M5.0368 8.13526C5.1747 7.99964 5.36078 7.92427 5.5542 7.92569C5.74761 7.92712 5.93256 8.00522 6.06845 8.14286L7.09379 9.18143C7.78341 7.94416 8.81938 6.93523 10.0745 6.27858C11.3766 5.59489 12.793 5.34268 14.1564 5.47304L13.8823 4.04C13.8635 3.94552 13.8636 3.84825 13.8825 3.7538C13.9015 3.65936 13.9389 3.56959 13.9927 3.48968C14.0465 3.40977 14.1156 3.34129 14.196 3.2882C14.2764 3.2351 14.3665 3.19844 14.4611 3.18031C14.5557 3.16219 14.653 3.16296 14.7473 3.18259C14.8416 3.20222 14.9311 3.24032 15.0106 3.29469C15.0901 3.34906 15.1581 3.41863 15.2106 3.49939C15.2631 3.58014 15.2992 3.6705 15.3166 3.76524L15.7044 5.79179C17.5272 6.37544 19.0468 7.65339 19.9344 9.34906L20.5809 9.00959C20.7524 8.91955 20.881 8.76509 20.9386 8.58018C20.9962 8.39527 20.978 8.19506 20.8879 8.0236L20.5485 7.37708C20.4584 7.20561 20.4402 7.0054 20.4978 6.82049C20.5554 6.63558 20.684 6.48112 20.8555 6.39108C21.027 6.30105 21.2272 6.28282 21.4121 6.3404C21.597 6.39799 21.7515 6.52666 21.8415 6.69813L22.181 7.34465C22.4511 7.85905 22.5058 8.45969 22.333 9.01441C22.1603 9.56914 21.7742 10.0325 21.2598 10.3026L20.6133 10.6421L21.2923 11.9351L23.2318 10.9167C23.4033 10.8267 23.6035 10.8085 23.7884 10.866C23.9733 10.9236 24.1278 11.0523 24.2178 11.2238C24.3078 11.3952 24.3261 11.5954 24.2685 11.7804C24.2109 11.9653 24.0822 12.1197 23.9108 12.2098L21.9712 13.2282L22.6501 14.5212L23.2967 14.1817C23.8111 13.9116 24.4117 13.8569 24.9664 14.0297C25.5212 14.2024 25.9845 14.5885 26.2546 15.1029L26.5941 15.7494C26.6841 15.9209 26.7024 16.1211 26.6448 16.306C26.5872 16.4909 26.4585 16.6454 26.2871 16.7354C26.1156 16.8254 25.9154 16.8437 25.7305 16.7861C25.5456 16.7285 25.3911 16.5998 25.3011 16.4283L24.9616 15.7818C24.8716 15.6104 24.7171 15.4817 24.5322 15.4241C24.3473 15.3665 24.1471 15.3847 23.9756 15.4748L23.3291 15.8143C24.2294 17.5289 24.4117 19.531 23.8359 21.3801C23.2601 23.2292 21.9733 24.7738 20.2586 25.6742C18.5439 26.5745 16.5418 26.7568 14.6927 26.181C12.8436 25.6052 11.299 24.3184 10.3987 22.6037L9.75218 22.9432C9.58071 23.0332 9.45203 23.1877 9.39445 23.3726C9.33687 23.5575 9.3551 23.7577 9.44513 23.9291L9.78461 24.5757C9.87464 24.7471 9.89287 24.9473 9.83529 25.1323C9.77771 25.3172 9.64903 25.4716 9.47756 25.5617C9.30609 25.6517 9.10588 25.6699 8.92097 25.6123C8.73606 25.5548 8.5816 25.4261 8.49157 25.2546L8.1521 24.6081C7.88199 24.0937 7.8273 23.4931 8.00005 22.9383C8.1728 22.3836 8.55884 21.9202 9.07324 21.6501L9.71976 21.3106L9.04081 20.0176L7.10126 21.036C6.92979 21.1261 6.72958 21.1443 6.54467 21.0867C6.35976 21.0291 6.2053 20.9004 6.11526 20.729C6.02523 20.5575 6.007 20.3573 6.06458 20.1724C6.12217 19.9875 6.25084 19.833 6.42231 19.743L8.36187 18.7246L7.68293 17.4315L7.03641 17.771C6.52201 18.0411 5.92137 18.0958 5.36665 17.923C4.81192 17.7503 4.34853 17.3643 4.07843 16.8499L3.73896 16.2033C3.64893 16.0319 3.6307 15.8317 3.68828 15.6468C3.74586 15.4618 3.87454 15.3074 4.04601 15.2174C4.21748 15.1273 4.41769 15.1091 4.6026 15.1667C4.78751 15.2243 4.94197 15.3529 5.032 15.5244L5.37147 16.1709C5.46151 16.3424 5.61597 16.4711 5.80088 16.5286C5.98579 16.5862 6.186 16.568 6.35746 16.478L7.00398 16.1385C6.0779 14.3748 5.94534 12.4039 6.47728 10.6367L5.0292 9.16691C4.89358 9.02901 4.81821 8.84293 4.81963 8.64951C4.82106 8.4561 4.89916 8.27115 5.0368 8.13526V8.13526ZM8.97597 16.7526L11.6917 21.9247C12.3529 23.185 13.4515 24.1606 14.7811 24.6683C16.1107 25.1759 17.5799 25.1807 18.9128 24.6818L13.5016 14.3763L8.97597 16.7526ZM14.7946 13.6973L20.2058 24.0029C21.3733 23.1889 22.2035 21.9767 22.5405 20.594C22.8775 19.2113 22.6981 17.753 22.0361 16.4932L19.3203 11.321L14.7946 13.6973ZM18.6413 10.028C18.26 9.29949 17.7287 8.65997 17.0824 8.1515C16.4362 7.64304 15.6896 7.27714 14.8918 7.07787C13.4987 6.72566 12.0245 6.90154 10.7534 7.57162C9.47949 8.23748 8.49722 9.35144 7.99603 10.6987C7.70741 11.4685 7.58501 12.2908 7.63689 13.1113C7.68877 13.9319 7.91374 14.7322 8.29702 15.4596L18.6413 10.028Z" fill="#FFD082"/>
</svg>
