<svg width="20" height="21" viewBox="0 0 20 21" fill="none" xmlns="http://www.w3.org/2000/svg">
<path d="M2.98223 5.16331C3.07666 5.07045 3.20407 5.01884 3.33651 5.01982C3.46894 5.02079 3.59558 5.07427 3.68863 5.16851L4.3907 5.87965C4.86289 5.03246 5.57224 4.34163 6.43162 3.89201C7.32319 3.42386 8.29309 3.25118 9.22659 3.34044L9.03892 2.3592C9.02605 2.29451 9.0261 2.22791 9.03908 2.16324C9.05206 2.09857 9.07771 2.0371 9.11455 1.98239C9.15138 1.92767 9.19869 1.88078 9.25372 1.84443C9.30876 1.80807 9.37045 1.78297 9.43523 1.77056C9.50002 1.75815 9.56661 1.75868 9.63119 1.77212C9.69577 1.78556 9.75705 1.81165 9.8115 1.84887C9.86595 1.8861 9.9125 1.93374 9.94846 1.98903C9.98442 2.04433 10.0091 2.10619 10.021 2.17107L10.2866 3.55869C11.5346 3.95833 12.5752 4.83337 13.1829 5.99442L13.6256 5.76198C13.743 5.70033 13.8311 5.59457 13.8705 5.46796C13.91 5.34135 13.8975 5.20426 13.8358 5.08685L13.6034 4.64417C13.5417 4.52676 13.5293 4.38967 13.5687 4.26306C13.6081 4.13645 13.6962 4.03069 13.8136 3.96904C13.931 3.90739 14.0681 3.89491 14.1947 3.93434C14.3214 3.97376 14.4271 4.06187 14.4888 4.17928L14.7212 4.62197C14.9061 4.97419 14.9436 5.38545 14.8253 5.76529C14.707 6.14512 14.4427 6.46241 14.0905 6.64735L13.6478 6.87979L14.1127 7.76516L15.4407 7.06783C15.5581 7.00619 15.6952 6.9937 15.8218 7.03313C15.9485 7.07256 16.0542 7.16067 16.1159 7.27808C16.1775 7.39548 16.19 7.53257 16.1506 7.65918C16.1111 7.78579 16.023 7.89156 15.9056 7.9532L14.5776 8.65053L15.0425 9.5359L15.4851 9.30346C15.8374 9.11852 16.2486 9.08107 16.6285 9.19935C17.0083 9.31764 17.3256 9.58196 17.5105 9.93419L17.743 10.3769C17.8046 10.4943 17.8171 10.6314 17.7777 10.758C17.7382 10.8846 17.6501 10.9904 17.5327 11.052C17.4153 11.1136 17.2782 11.1261 17.1516 11.0867C17.025 11.0473 16.9192 10.9592 16.8576 10.8418L16.6252 10.3991C16.5635 10.2817 16.4577 10.1936 16.3311 10.1541C16.2045 10.1147 16.0674 10.1272 15.95 10.1888L15.5073 10.4213C16.1238 11.5953 16.2486 12.9662 15.8544 14.2323C15.4601 15.4985 14.579 16.5561 13.4049 17.1726C12.2308 17.789 10.86 17.9139 9.59385 17.5196C8.32774 17.1253 7.27012 16.2442 6.65364 15.0701L6.21095 15.3026C6.09355 15.3642 6.00544 15.47 5.96601 15.5966C5.92658 15.7232 5.93906 15.8603 6.00071 15.9777L6.23315 16.4204C6.2948 16.5378 6.30729 16.6749 6.26786 16.8015C6.22843 16.9281 6.14032 17.0339 6.02291 17.0955C5.90551 17.1572 5.76842 17.1697 5.64181 17.1302C5.51519 17.0908 5.40943 17.0027 5.34778 16.8853L5.11534 16.4426C4.9304 16.0904 4.89295 15.6791 5.01123 15.2993C5.12952 14.9194 5.39384 14.6022 5.74607 14.4172L6.18875 14.1848L5.72386 13.2994L4.39581 13.9967C4.2784 14.0584 4.14131 14.0709 4.0147 14.0314C3.88809 13.992 3.78233 13.9039 3.72068 13.7865C3.65903 13.6691 3.64655 13.532 3.68598 13.4054C3.72541 13.2788 3.81352 13.173 3.93092 13.1114L5.25898 12.414L4.79409 11.5287L4.35141 11.7611C3.99918 11.946 3.58792 11.9835 3.20809 11.8652C2.82825 11.7469 2.51097 11.4826 2.32602 11.1304L2.09358 10.6877C2.03193 10.5703 2.01945 10.4332 2.05888 10.3066C2.0983 10.18 2.18641 10.0742 2.30382 10.0126C2.42123 9.95092 2.55832 9.93843 2.68493 9.97786C2.81154 10.0173 2.9173 10.1054 2.97895 10.2228L3.21139 10.6655C3.27304 10.7829 3.3788 10.871 3.50541 10.9104C3.63202 10.9499 3.76911 10.9374 3.88652 10.8757L4.32921 10.6433C3.6951 9.43564 3.60433 8.08615 3.96856 6.87612L2.97703 5.8697C2.88417 5.77528 2.83256 5.64786 2.83354 5.51543C2.83451 5.383 2.88799 5.25636 2.98223 5.16331V5.16331ZM5.67946 11.0638L7.53901 14.6053C7.99175 15.4682 8.74394 16.1362 9.65435 16.4838C10.5648 16.8314 11.5707 16.8347 12.4834 16.4931L8.77826 9.43667L5.67946 11.0638ZM9.66363 8.97178L13.3688 16.0282C14.1682 15.4709 14.7366 14.6409 14.9674 13.6941C15.1981 12.7473 15.0753 11.7488 14.622 10.8862L12.7624 7.34468L9.66363 8.97178ZM12.2975 6.45931C12.0364 5.96048 11.6726 5.52259 11.2301 5.17443C10.7876 4.82627 10.2764 4.57574 9.73016 4.43929C8.77628 4.19813 7.76688 4.31856 6.89651 4.77738C6.02423 5.2333 5.35166 5.99605 5.00848 6.91853C4.81086 7.44568 4.72705 8.00868 4.76257 8.57053C4.79809 9.13238 4.95213 9.68035 5.21458 10.1784L12.2975 6.45931Z" fill="#FFD082"/>
</svg>
