<svg width="20" height="17" viewBox="0 0 20 17" fill="none" xmlns="http://www.w3.org/2000/svg">
<path d="M0 5.1646V13.6C0 14.5017 0.351189 15.3665 0.976311 16.0042C1.60143 16.6418 2.44928 17 3.33333 17H16.6667C17.5507 17 18.3986 16.6418 19.0237 16.0042C19.6488 15.3665 20 14.5017 20 13.6V3.4C20 2.49826 19.6488 1.63346 19.0237 0.995837C18.3986 0.358213 17.5507 0 16.6667 0H3.33333C2.44928 0 1.60143 0.358213 0.976311 0.995837C0.351189 1.63346 0 2.49826 0 3.4V5.1646ZM3.33333 1.7H16.6667C17.1087 1.7 17.5326 1.87911 17.8452 2.19792C18.1577 2.51673 18.3333 2.94913 18.3333 3.4V4.658L10 9.2344L1.66667 4.658V3.4C1.66667 2.94913 1.84226 2.51673 2.15482 2.19792C2.46738 1.87911 2.89131 1.7 3.33333 1.7V1.7ZM1.66667 6.5892L9.605 10.948C9.7264 11.0147 9.86212 11.0496 10 11.0496C10.1379 11.0496 10.2736 11.0147 10.395 10.948L18.3333 6.5892V13.6C18.3333 14.0509 18.1577 14.4833 17.8452 14.8021C17.5326 15.1209 17.1087 15.3 16.6667 15.3H3.33333C2.89131 15.3 2.46738 15.1209 2.15482 14.8021C1.84226 14.4833 1.66667 14.0509 1.66667 13.6V6.5892Z" fill="#CCCCCC"/>
</svg>
