<svg width="21" height="21" viewBox="0 0 21 21" fill="none" xmlns="http://www.w3.org/2000/svg">
<path d="M10.3832 0C7.56549 0 7.21116 0.0129791 6.10405 0.0622995C4.99694 0.114216 4.24285 0.288135 3.58222 0.54512C2.88926 0.805765 2.26159 1.21461 1.74309 1.74309C1.21494 2.26186 0.806139 2.88945 0.54512 3.58222C0.288135 4.24156 0.112918 4.99694 0.0622995 6.10016C0.0129791 7.20987 0 7.5629 0 10.3845C0 13.2036 0.0129791 13.5566 0.0622995 14.6637C0.114216 15.7696 0.288135 16.5236 0.54512 17.1843C0.811191 17.867 1.16552 18.4458 1.74309 19.0234C2.31936 19.601 2.89822 19.9566 3.58092 20.2214C4.24285 20.4784 4.99564 20.6536 6.10145 20.7042C7.20987 20.7535 7.5629 20.7665 10.3832 20.7665C13.2036 20.7665 13.5553 20.7535 14.6637 20.7042C15.7683 20.6523 16.5249 20.4784 17.1856 20.2214C17.8781 19.9606 18.5053 19.5518 19.0234 19.0234C19.601 18.4458 19.9553 17.867 20.2214 17.1843C20.4771 16.5236 20.6523 15.7696 20.7042 14.6637C20.7535 13.5566 20.7665 13.2036 20.7665 10.3832C20.7665 7.5629 20.7535 7.20987 20.7042 6.10145C20.6523 4.99694 20.4771 4.24156 20.2214 3.58222C19.9604 2.88943 19.5516 2.26183 19.0234 1.74309C18.5051 1.21442 17.8773 0.805539 17.1843 0.54512C16.5223 0.288135 15.767 0.112918 14.6624 0.0622995C13.554 0.0129791 13.2023 0 10.3806 0H10.3845H10.3832ZM9.45265 1.87158H10.3845C13.1569 1.87158 13.4852 1.88067 14.5794 1.93128C15.5917 1.97671 16.1421 2.14674 16.5081 2.28821C16.9922 2.4764 17.3387 2.70224 17.7021 3.06565C18.0655 3.42907 18.2901 3.77431 18.4783 4.25973C18.6211 4.62444 18.7898 5.17475 18.8352 6.18712C18.8858 7.28125 18.8962 7.60962 18.8962 10.3806C18.8962 13.1517 18.8858 13.4813 18.8352 14.5755C18.7898 15.5878 18.6198 16.1369 18.4783 16.5029C18.3118 16.9537 18.0461 17.3614 17.7008 17.6956C17.3374 18.0591 16.9922 18.2836 16.5068 18.4718C16.1434 18.6146 15.593 18.7833 14.5794 18.83C13.4852 18.8793 13.1569 18.891 10.3845 18.891C7.61222 18.891 7.28255 18.8793 6.18841 18.83C5.17605 18.7833 4.62703 18.6146 4.26102 18.4718C3.81 18.3056 3.40197 18.0403 3.06695 17.6956C2.72138 17.3608 2.45528 16.9528 2.28821 16.5016C2.14674 16.1369 1.97671 15.5865 1.93128 14.5742C1.88196 13.48 1.87158 13.1517 1.87158 10.3781C1.87158 7.60573 1.88196 7.27866 1.93128 6.18452C1.97801 5.17215 2.14674 4.62184 2.28951 4.25583C2.4777 3.77171 2.70354 3.42517 3.06695 3.06176C3.43036 2.69835 3.77561 2.47381 4.26102 2.28561C4.62703 2.14284 5.17605 1.97411 6.18841 1.92739C7.14627 1.88326 7.51747 1.87028 9.45265 1.86898V1.87158ZM15.9266 3.5952C15.763 3.5952 15.601 3.62743 15.4498 3.69004C15.2986 3.75266 15.1613 3.84444 15.0456 3.96014C14.9299 4.07584 14.8381 4.2132 14.7755 4.36437C14.7128 4.51554 14.6806 4.67756 14.6806 4.84119C14.6806 5.00481 14.7128 5.16684 14.7755 5.31801C14.8381 5.46918 14.9299 5.60653 15.0456 5.72224C15.1613 5.83794 15.2986 5.92972 15.4498 5.99233C15.601 6.05495 15.763 6.08718 15.9266 6.08718C16.2571 6.08718 16.574 5.9559 16.8076 5.72224C17.0413 5.48857 17.1726 5.17165 17.1726 4.84119C17.1726 4.51073 17.0413 4.19381 16.8076 3.96014C16.574 3.72647 16.2571 3.5952 15.9266 3.5952ZM10.3845 5.05145C9.67728 5.04041 8.97488 5.17019 8.31825 5.43322C7.66162 5.69624 7.06387 6.08727 6.55981 6.58353C6.05575 7.07978 5.65545 7.67136 5.38221 8.32381C5.10897 8.97625 4.96825 9.67654 4.96825 10.3839C4.96825 11.0912 5.10897 11.7915 5.38221 12.444C5.65545 13.0964 6.05575 13.688 6.55981 14.1843C7.06387 14.6805 7.66162 15.0715 8.31825 15.3346C8.97488 15.5976 9.67728 15.7274 10.3845 15.7163C11.7844 15.6945 13.1195 15.1231 14.1017 14.1254C15.0839 13.1278 15.6344 11.7839 15.6344 10.3839C15.6344 8.98388 15.0839 7.64001 14.1017 6.64236C13.1195 5.6447 11.7844 5.07329 10.3845 5.05145ZM10.3845 6.92173C11.3026 6.92173 12.183 7.28643 12.8322 7.93559C13.4814 8.58475 13.8461 9.46519 13.8461 10.3832C13.8461 11.3013 13.4814 12.1817 12.8322 12.8309C12.183 13.4801 11.3026 13.8448 10.3845 13.8448C9.46649 13.8448 8.58604 13.4801 7.93688 12.8309C7.28772 12.1817 6.92303 11.3013 6.92303 10.3832C6.92303 9.46519 7.28772 8.58475 7.93688 7.93559C8.58604 7.28643 9.46649 6.92173 10.3845 6.92173Z" fill="#CCCCCC"/>
</svg>
