<svg width="16" height="25" viewBox="0 0 16 25" fill="none" xmlns="http://www.w3.org/2000/svg">
<path fill-rule="evenodd" clip-rule="evenodd" d="M4.41506 0.192078C1.96806 0.192078 6.35048e-05 2.24508 6.35048e-05 4.76008C6.35048e-05 6.28908 0.728064 7.64708 1.84706 8.47608C1.27034 8.90816 0.802873 9.46936 0.482128 10.1147C0.161382 10.76 -0.00371743 11.4715 6.35048e-05 12.1921C6.35048e-05 13.7221 0.728064 15.0791 1.84706 15.9081C1.27034 16.3402 0.802873 16.9014 0.482128 17.5467C0.161382 18.192 -0.00371743 18.9035 6.35048e-05 19.6241C6.35048e-05 22.1391 1.96806 24.1921 4.41506 24.1921C6.86106 24.1921 8.83006 22.1391 8.83006 19.6241V15.7621C9.6034 16.4069 10.5782 16.7603 11.5851 16.7611C14.0321 16.7601 16.0001 14.7071 16.0001 12.1921C16.0001 10.6621 15.2731 9.30508 14.1531 8.47608C14.7298 8.04399 15.1973 7.4828 15.518 6.83749C15.8387 6.19218 16.0038 5.4807 16.0001 4.76008C16.0001 2.24508 14.0321 0.192078 11.5851 0.192078H4.41506V0.192078ZM1.65906 4.76008C1.65906 3.16908 2.90106 1.89508 4.41506 1.89508H7.17006V7.62508H4.41506C2.90106 7.62508 1.65906 6.35008 1.65906 4.76008V4.76008ZM11.5851 7.62408H8.83006V1.89408H11.5851C13.1001 1.89408 14.3411 3.16908 14.3411 4.76008C14.3411 6.35008 13.1001 7.62408 11.5851 7.62408ZM1.66006 12.1921C1.66006 10.6021 2.90206 9.32708 4.41606 9.32708H7.17106V15.0571H4.41506C2.90006 15.0571 1.65906 13.7821 1.65906 12.1921H1.66006ZM8.83006 12.1921C8.83006 10.6021 10.0721 9.32708 11.5861 9.32708C13.1011 9.32708 14.3421 10.6011 14.3421 12.1921C14.3421 13.7821 13.1011 15.0571 11.5861 15.0571C10.0721 15.0571 8.83106 13.7831 8.83106 12.1921H8.83006ZM1.66006 19.6241C1.66006 18.0341 2.90206 16.7601 4.41606 16.7601H7.17106V19.6241C7.17106 21.2151 5.93106 22.4891 4.41606 22.4891C2.90206 22.4891 1.66006 21.2151 1.66006 19.6241Z" fill="#FF7C7C"/>
</svg>
