<svg width="22" height="22" viewBox="0 0 22 22" fill="none" xmlns="http://www.w3.org/2000/svg">
<path d="M0 0V22H22V0H0ZM11.9723 17.158C11.9723 19.2991 10.7152 20.2763 8.88348 20.2763C7.22857 20.2763 6.27098 19.4219 5.77991 18.3857L7.46429 17.3692C7.78839 17.9438 8.08304 18.4299 8.79509 18.4299C9.47277 18.4299 9.90491 18.1647 9.90491 17.1286V10.1013H11.9723V17.158V17.158ZM16.8634 20.2763C14.9433 20.2763 13.7009 19.3629 13.0969 18.1647L14.7812 17.1924C15.2232 17.9143 15.8027 18.4496 16.8192 18.4496C17.6737 18.4496 18.2237 18.0223 18.2237 17.4281C18.2237 16.721 17.6638 16.4705 16.7161 16.0531L16.2004 15.8321C14.7076 15.1987 13.7205 14.3982 13.7205 12.7138C13.7205 11.1621 14.904 9.98348 16.7455 9.98348C18.0616 9.98348 19.0045 10.4402 19.6821 11.6384L18.0714 12.6696C17.7179 12.0362 17.3348 11.7857 16.7406 11.7857C16.1366 11.7857 15.7536 12.1687 15.7536 12.6696C15.7536 13.2884 16.1366 13.5388 17.0254 13.9268L17.5411 14.1478C19.2991 14.8991 20.2862 15.6701 20.2862 17.3987C20.2862 19.2549 18.8228 20.2763 16.8634 20.2763V20.2763Z" fill="black"/>
</svg>
