<svg width="1384" height="813" viewBox="0 0 1384 813" fill="none" xmlns="http://www.w3.org/2000/svg">
<path d="M1117.73 316.268C1117.94 315.976 1118.03 315.652 1117.98 315.295C1117.92 314.937 1117.75 314.65 1117.46 314.431C1117.17 314.213 1116.84 314.13 1116.49 314.182C1116.13 314.233 1115.84 314.405 1115.62 314.697C1115.4 314.989 1115.32 315.314 1115.37 315.671C1115.42 316.028 1115.6 316.316 1115.89 316.534C1116.18 316.752 1116.51 316.836 1116.86 316.784C1117.22 316.732 1117.51 316.561 1117.73 316.268ZM1127.15 303.652C1127.37 303.36 1127.45 303.035 1127.4 302.678C1127.35 302.321 1127.18 302.033 1126.89 301.815C1126.6 301.597 1126.27 301.513 1125.91 301.565C1125.56 301.617 1125.27 301.788 1125.05 302.081C1124.83 302.373 1124.75 302.697 1124.8 303.054C1124.85 303.412 1125.02 303.699 1125.32 303.918C1125.61 304.136 1125.93 304.219 1126.29 304.167C1126.65 304.116 1126.93 303.944 1127.15 303.652ZM1133.11 310.291C1133.33 309.999 1133.42 309.675 1133.36 309.317C1133.31 308.96 1133.14 308.672 1132.85 308.454C1132.56 308.236 1132.23 308.153 1131.88 308.204C1131.52 308.256 1131.23 308.428 1131.01 308.72C1130.79 309.012 1130.71 309.337 1130.76 309.694C1130.81 310.051 1130.99 310.339 1131.28 310.557C1131.57 310.775 1131.89 310.859 1132.25 310.807C1132.61 310.755 1132.9 310.583 1133.11 310.291ZM1134.17 311.077C1133.88 311.457 1133.52 311.738 1133.09 311.921C1132.66 312.104 1132.21 312.167 1131.76 312.109C1130.18 314.194 1128.22 315.089 1125.89 314.794C1125.2 314.706 1124.23 314.448 1123.01 314.02C1121.85 313.613 1121.04 313.41 1120.57 313.41C1120.1 313.41 1119.67 313.662 1119.3 314.166L1119.08 314.45C1119.27 314.873 1119.33 315.318 1119.28 315.784C1119.23 316.251 1119.06 316.674 1118.78 317.054C1118.34 317.638 1117.76 317.982 1117.05 318.085C1116.34 318.189 1115.69 318.022 1115.1 317.586C1114.52 317.149 1114.17 316.574 1114.07 315.859C1113.97 315.145 1114.13 314.496 1114.57 313.912C1114.86 313.532 1115.21 313.251 1115.65 313.067C1116.08 312.884 1116.52 312.822 1116.98 312.879L1123.69 303.899C1123.51 303.476 1123.44 303.031 1123.49 302.565C1123.55 302.098 1123.72 301.675 1124 301.295C1124.44 300.711 1125.01 300.367 1125.73 300.264C1126.44 300.16 1127.09 300.327 1127.67 300.763C1128.26 301.2 1128.6 301.775 1128.7 302.49C1128.81 303.204 1128.64 303.853 1128.2 304.437C1127.92 304.817 1127.56 305.098 1127.13 305.282C1126.7 305.465 1126.25 305.527 1125.79 305.47L1121.73 310.913C1122.26 311.018 1122.98 311.23 1123.88 311.549C1124.37 311.725 1124.77 311.856 1125.08 311.942C1125.39 312.028 1125.73 312.107 1126.11 312.179C1126.48 312.252 1126.81 312.268 1127.08 312.23C1127.34 312.191 1127.63 312.115 1127.94 312.003C1128.24 311.89 1128.53 311.713 1128.81 311.471C1129.09 311.229 1129.37 310.918 1129.65 310.538C1129.47 310.115 1129.4 309.671 1129.46 309.204C1129.51 308.737 1129.68 308.314 1129.96 307.934C1130.4 307.35 1130.97 307.006 1131.69 306.903C1132.4 306.8 1133.05 306.966 1133.63 307.403C1134.22 307.839 1134.56 308.415 1134.67 309.129C1134.77 309.844 1134.6 310.493 1134.17 311.077Z" fill="#FFD082"/>
<path d="M12.9372 2.84582L17.391 10.0683L14.6222 21.7445L0.999989 18.5143L5.15308 1L12.9372 2.84582Z" stroke="#FFD082" stroke-width="2" stroke-linecap="round" stroke-linejoin="round"/>
<path d="M12.4507 2.73047L11.1817 8.08207L17.5064 9.5818" stroke="#FFD082" stroke-linecap="round" stroke-linejoin="round"/>
<path d="M7.71087 11.8838L5.30338 13.3684L6.78796 15.7759" stroke="#FFD082" stroke-width="2" stroke-linecap="round" stroke-linejoin="round"/>
<path d="M11.603 12.8067L13.0875 15.2142L10.6801 16.6988" stroke="#FFD082" stroke-width="2" stroke-linecap="round" stroke-linejoin="round"/>
<path d="M862 72.5135L872.599 76.47L868.643 87.0693" stroke="#88E1F2" stroke-width="2" stroke-linecap="round" stroke-linejoin="round"/>
<path d="M186.982 797.163C187.077 797.07 187.204 797.019 187.337 797.02C187.469 797.021 187.596 797.074 187.689 797.169L188.391 797.88C188.863 797.032 189.572 796.342 190.432 795.892C191.323 795.424 192.293 795.251 193.227 795.34L193.039 794.359C193.026 794.295 193.026 794.228 193.039 794.163C193.052 794.099 193.078 794.037 193.115 793.982C193.151 793.928 193.199 793.881 193.254 793.844C193.309 793.808 193.37 793.783 193.435 793.771C193.5 793.758 193.567 793.759 193.631 793.772C193.696 793.786 193.757 793.812 193.812 793.849C193.866 793.886 193.912 793.934 193.948 793.989C193.984 794.044 194.009 794.106 194.021 794.171L194.287 795.559C195.535 795.958 196.575 796.833 197.183 797.994L197.626 797.762C197.743 797.7 197.831 797.595 197.871 797.468C197.91 797.341 197.897 797.204 197.836 797.087L197.603 796.644C197.542 796.527 197.529 796.39 197.569 796.263C197.608 796.136 197.696 796.031 197.814 795.969C197.931 795.907 198.068 795.895 198.195 795.934C198.321 795.974 198.427 796.062 198.489 796.179L198.721 796.622C198.906 796.974 198.944 797.385 198.825 797.765C198.707 798.145 198.443 798.462 198.09 798.647L197.648 798.88L198.113 799.765L199.441 799.068C199.558 799.006 199.695 798.994 199.822 799.033C199.948 799.073 200.054 799.161 200.116 799.278C200.178 799.395 200.19 799.533 200.151 799.659C200.111 799.786 200.023 799.892 199.906 799.953L198.578 800.651L199.042 801.536L199.485 801.303C199.837 801.119 200.249 801.081 200.628 801.199C201.008 801.318 201.326 801.582 201.511 801.934L201.743 802.377C201.805 802.494 201.817 802.631 201.778 802.758C201.738 802.885 201.65 802.99 201.533 803.052C201.415 803.114 201.278 803.126 201.152 803.087C201.025 803.047 200.919 802.959 200.858 802.842L200.625 802.399C200.564 802.282 200.458 802.194 200.331 802.154C200.205 802.115 200.067 802.127 199.95 802.189L199.507 802.421C200.124 803.595 200.249 804.966 199.854 806.232C199.46 807.498 198.579 808.556 197.405 809.173C196.231 809.789 194.86 809.914 193.594 809.52C192.328 809.125 191.27 808.244 190.654 807.07L190.211 807.303C190.094 807.364 190.005 807.47 189.966 807.597C189.927 807.723 189.939 807.86 190.001 807.978L190.233 808.42C190.295 808.538 190.307 808.675 190.268 808.802C190.228 808.928 190.14 809.034 190.023 809.096C189.906 809.157 189.768 809.17 189.642 809.13C189.515 809.091 189.409 809.003 189.348 808.885L189.115 808.443C188.93 808.09 188.893 807.679 189.011 807.299C189.13 806.919 189.394 806.602 189.746 806.417L190.189 806.185L189.724 805.299L188.396 805.997C188.278 806.058 188.141 806.071 188.015 806.031C187.888 805.992 187.782 805.904 187.721 805.786C187.659 805.669 187.647 805.532 187.686 805.405C187.725 805.279 187.814 805.173 187.931 805.111L189.259 804.414L188.794 803.529L188.351 803.761C187.999 803.946 187.588 803.983 187.208 803.865C186.828 803.747 186.511 803.483 186.326 803.13L186.094 802.688C186.032 802.57 186.019 802.433 186.059 802.307C186.098 802.18 186.186 802.074 186.304 802.013C186.421 801.951 186.558 801.938 186.685 801.978C186.812 802.017 186.917 802.105 186.979 802.223L187.211 802.665C187.273 802.783 187.379 802.871 187.505 802.91C187.632 802.95 187.769 802.937 187.887 802.876L188.329 802.643C187.695 801.436 187.604 800.086 187.969 798.876L186.977 797.87C186.884 797.775 186.833 797.648 186.834 797.515C186.835 797.383 186.888 797.256 186.982 797.163ZM189.679 803.064L191.539 806.605C191.992 807.468 192.744 808.136 193.654 808.484C194.565 808.831 195.571 808.835 196.483 808.493L192.778 801.437L189.679 803.064ZM193.664 800.972L197.369 808.028C198.168 807.471 198.737 806.641 198.967 805.694C199.198 804.747 199.075 803.749 198.622 802.886L196.762 799.345L193.664 800.972ZM196.298 798.459C196.036 797.96 195.673 797.523 195.23 797.174C194.788 796.826 194.276 796.576 193.73 796.439C192.776 796.198 191.767 796.319 190.897 796.777C190.024 797.233 189.352 797.996 189.008 798.919C188.811 799.446 188.727 800.009 188.763 800.571C188.798 801.132 188.952 801.68 189.215 802.178L196.298 798.459Z" fill="#FFD082"/>
<path d="M387 140.881C387 139.291 385.009 137.784 381.956 136.85C382.661 133.739 382.348 131.263 380.968 130.47C380.634 130.283 380.255 130.189 379.872 130.197V131.287C380.097 131.287 380.278 131.332 380.43 131.415C381.095 131.797 381.384 133.249 381.159 135.118C381.105 135.578 381.017 136.062 380.909 136.556C379.887 136.31 378.849 136.132 377.803 136.023C377.18 135.163 376.5 134.346 375.768 133.577C377.363 132.095 378.86 131.283 379.878 131.283V130.192C378.532 130.192 376.771 131.151 374.99 132.814C373.21 131.162 371.448 130.212 370.103 130.212V131.302C371.116 131.302 372.618 132.11 374.213 133.582C373.528 134.302 372.843 135.118 372.192 136.023C371.144 136.13 370.104 136.31 369.081 136.561C368.968 136.072 368.885 135.598 368.826 135.143C368.596 133.273 368.88 131.821 369.541 131.435C369.687 131.347 369.878 131.307 370.103 131.307V130.217C369.693 130.217 369.32 130.305 368.998 130.49C367.623 131.283 367.315 133.753 368.024 136.855C364.981 137.795 363 139.296 363 140.881C363 142.471 364.991 143.978 368.044 144.911C367.339 148.023 367.652 150.499 369.032 151.291C369.35 151.477 369.722 151.565 370.132 151.565C371.478 151.565 373.239 150.606 375.02 148.943C376.8 150.596 378.561 151.545 379.907 151.545C380.293 151.553 380.674 151.459 381.012 151.271C382.387 150.479 382.695 148.009 381.986 144.907C385.019 143.973 387 142.466 387 140.881ZM380.63 137.618C380.44 138.272 380.22 138.917 379.97 139.55C379.561 138.755 379.112 137.981 378.625 137.231C379.32 137.334 379.99 137.461 380.631 137.618H380.63ZM378.39 142.828C378.009 143.488 377.617 144.115 377.211 144.697C375.743 144.826 374.267 144.828 372.799 144.702C371.957 143.499 371.221 142.226 370.598 140.896C371.22 139.563 371.953 138.285 372.79 137.076C374.257 136.946 375.733 136.944 377.201 137.07C377.607 137.652 378.004 138.274 378.385 138.93C378.757 139.57 379.095 140.22 379.403 140.876C379.092 141.54 378.754 142.191 378.39 142.828V142.828ZM379.97 142.192C380.234 142.847 380.46 143.503 380.645 144.139C380.005 144.296 379.329 144.428 378.63 144.53C379.115 143.773 379.562 142.993 379.97 142.192V142.192ZM375.01 147.412C374.555 146.942 374.1 146.419 373.65 145.846C374.09 145.866 374.54 145.881 374.995 145.881C375.455 145.881 375.91 145.871 376.355 145.846C375.915 146.419 375.46 146.942 375.01 147.412ZM371.37 144.53C370.696 144.432 370.026 144.304 369.364 144.144C369.545 143.513 369.77 142.862 370.024 142.212C370.225 142.602 370.436 142.994 370.666 143.386C370.896 143.777 371.13 144.159 371.37 144.53ZM374.985 134.35C375.44 134.82 375.895 135.343 376.345 135.916C375.905 135.896 375.455 135.881 375 135.881C374.54 135.881 374.085 135.891 373.64 135.916C374.08 135.343 374.535 134.82 374.985 134.35ZM371.365 137.232C370.88 137.987 370.433 138.766 370.025 139.565C369.768 138.928 369.543 138.278 369.35 137.618C369.99 137.466 370.666 137.334 371.365 137.232ZM366.938 143.356C365.206 142.618 364.086 141.649 364.086 140.881C364.086 140.113 365.206 139.139 366.938 138.406C367.358 138.225 367.818 138.063 368.293 137.912C368.572 138.87 368.939 139.868 369.393 140.891C368.964 141.853 368.602 142.844 368.308 143.855C367.843 143.711 367.386 143.545 366.938 143.356V143.356ZM369.57 150.346C368.905 149.966 368.616 148.512 368.841 146.644C368.895 146.184 368.983 145.699 369.091 145.205C370.049 145.44 371.096 145.621 372.197 145.739C372.82 146.599 373.5 147.416 374.232 148.185C372.637 149.667 371.14 150.479 370.122 150.479C369.93 150.481 369.74 150.436 369.57 150.347V150.346ZM381.174 146.619C381.404 148.488 381.12 149.941 380.459 150.327C380.313 150.415 380.122 150.454 379.897 150.454C378.884 150.454 377.382 149.647 375.787 148.174C376.472 147.456 377.157 146.639 377.808 145.734C378.856 145.627 379.896 145.447 380.919 145.196C381.032 145.69 381.119 146.164 381.174 146.619V146.619ZM383.057 143.356C382.637 143.537 382.177 143.699 381.702 143.85C381.403 142.833 381.035 141.838 380.602 140.871C381.052 139.854 381.413 138.861 381.687 137.907C382.172 138.058 382.631 138.225 383.062 138.406C384.794 139.144 385.914 140.113 385.914 140.881C385.909 141.649 384.789 142.623 383.057 143.356V143.356Z" fill="#88E1F2"/>
<path d="M374.995 143.117C375.588 143.117 376.157 142.882 376.576 142.462C376.995 142.043 377.231 141.474 377.231 140.881C377.231 140.288 376.995 139.719 376.576 139.3C376.157 138.881 375.588 138.645 374.995 138.645C374.402 138.645 373.833 138.881 373.414 139.3C372.995 139.719 372.759 140.288 372.759 140.881C372.759 141.474 372.995 142.043 373.414 142.462C373.833 142.882 374.402 143.117 374.995 143.117V143.117Z" fill="#88E1F2"/>
<path fill-rule="evenodd" clip-rule="evenodd" d="M573.415 529.192C570.968 529.192 569 531.245 569 533.76C569 535.289 569.728 536.647 570.847 537.476C570.27 537.908 569.803 538.469 569.482 539.115C569.161 539.76 568.996 540.471 569 541.192C569 542.722 569.728 544.079 570.847 544.908C570.27 545.34 569.803 545.901 569.482 546.547C569.161 547.192 568.996 547.903 569 548.624C569 551.139 570.968 553.192 573.415 553.192C575.861 553.192 577.83 551.139 577.83 548.624V544.762C578.603 545.407 579.578 545.76 580.585 545.761C583.032 545.76 585 543.707 585 541.192C585 539.662 584.273 538.305 583.153 537.476C583.73 537.044 584.197 536.483 584.518 535.837C584.839 535.192 585.004 534.481 585 533.76C585 531.245 583.032 529.192 580.585 529.192H573.415ZM570.659 533.76C570.659 532.169 571.901 530.895 573.415 530.895H576.17V536.625H573.415C571.901 536.625 570.659 535.35 570.659 533.76ZM580.585 536.624H577.83V530.894H580.585C582.1 530.894 583.341 532.169 583.341 533.76C583.341 535.35 582.1 536.624 580.585 536.624ZM570.66 541.192C570.66 539.602 571.902 538.327 573.416 538.327H576.171V544.057H573.415C571.9 544.057 570.659 542.782 570.659 541.192H570.66ZM577.83 541.192C577.83 539.602 579.072 538.327 580.586 538.327C582.101 538.327 583.342 539.601 583.342 541.192C583.342 542.782 582.101 544.057 580.586 544.057C579.072 544.057 577.831 542.783 577.831 541.192H577.83ZM570.66 548.624C570.66 547.034 571.902 545.76 573.416 545.76H576.171V548.624C576.171 550.215 574.931 551.489 573.416 551.489C571.902 551.489 570.66 550.215 570.66 548.624Z" fill="#FF7C7C"/>
<path d="M1281.1 40.0051C1281.03 40.0425 1281.04 40.0544 1281.1 40.02C1281.12 40.0115 1281.14 39.9992 1281.16 39.9838C1281.16 39.9713 1281.16 39.9713 1281.1 40.0051ZM1281.24 39.9279C1281.21 39.9559 1281.21 39.9559 1281.25 39.9374C1281.26 39.9305 1281.28 39.921 1281.29 39.9095C1281.29 39.8935 1281.28 39.8971 1281.24 39.9279ZM1281.34 39.8721C1281.3 39.9 1281.3 39.9 1281.34 39.8816C1281.36 39.8745 1281.37 39.8649 1281.38 39.8531C1281.38 39.8383 1281.37 39.8413 1281.34 39.8721ZM1281.43 39.8169C1281.4 39.8448 1281.4 39.8448 1281.44 39.8258C1281.46 39.8139 1281.48 39.8015 1281.48 39.7979C1281.48 39.7831 1281.47 39.786 1281.43 39.8169ZM1281.56 39.7332C1281.49 39.7765 1281.47 39.8044 1281.53 39.7736C1281.57 39.7492 1281.64 39.6958 1281.62 39.6958C1281.6 39.7053 1281.58 39.7213 1281.56 39.7332H1281.56ZM1275.88 22.1964C1275.83 22.1994 1275.7 22.2113 1275.59 22.2208C1272.89 22.4654 1270.36 23.9189 1268.76 26.1579C1267.88 27.3859 1267.3 28.8095 1267.09 30.3075C1267.01 30.83 1267 30.9844 1267 31.6927C1267 32.4005 1267.01 32.5525 1267.09 33.075C1267.6 36.644 1270.14 39.64 1273.58 40.7503C1274.2 40.948 1274.85 41.0846 1275.59 41.1683C1275.88 41.1991 1277.12 41.1991 1277.41 41.1683C1278.69 41.0258 1279.76 40.7105 1280.83 40.166C1281 40.0829 1281.03 40.0609 1281.01 40.0425C1280.48 39.3541 1279.97 38.6624 1279.46 37.9674L1277.94 35.9172L1276.04 33.0999C1275.4 32.1566 1274.76 31.2177 1274.12 30.2832C1274.11 30.2832 1274.1 31.5354 1274.1 33.0625C1274.09 35.7373 1274.09 35.846 1274.06 35.9077C1274.03 35.9823 1273.97 36.0428 1273.9 36.0781C1273.84 36.106 1273.78 36.112 1273.5 36.112H1273.18L1273.1 36.0597C1273.05 36.0261 1273 35.9792 1272.98 35.9238L1272.94 35.84L1272.94 32.1167L1272.94 28.3933L1273 28.3191C1273.04 28.2735 1273.09 28.2357 1273.14 28.2081C1273.22 28.1707 1273.25 28.1647 1273.57 28.1647C1273.95 28.1647 1274.01 28.1796 1274.11 28.2882C1274.88 29.4341 1275.64 30.5844 1276.4 31.7391C1277.63 33.6105 1279.32 36.1642 1280.15 37.417L1281.65 39.6964L1281.73 39.6471C1282.45 39.166 1283.11 38.5899 1283.68 37.9342C1284.87 36.5644 1285.65 34.8788 1285.91 33.0791C1285.99 32.5566 1286 32.4017 1286 31.6939C1286 30.9856 1285.99 30.8342 1285.91 30.3117C1285.4 26.7427 1282.86 23.7467 1279.42 22.6358C1278.77 22.4321 1278.11 22.2935 1277.44 22.222C1277.26 22.2036 1276.03 22.1816 1275.88 22.1976L1275.88 22.1964ZM1279.77 27.9421C1279.81 27.9638 1279.85 27.9941 1279.88 28.0312C1279.91 28.0683 1279.94 28.1115 1279.95 28.1582C1279.97 28.2081 1279.97 29.2406 1279.97 31.5663L1279.96 34.9055L1279.38 34.003L1278.79 33.0999V30.6757C1278.79 29.104 1278.79 28.2229 1278.8 28.1796C1278.83 28.0802 1278.9 27.9961 1278.99 27.945C1279.06 27.9076 1279.09 27.9047 1279.38 27.9047C1279.66 27.9047 1279.7 27.9076 1279.76 27.9421H1279.77Z" fill="#FF7C7C"/>
<path d="M1199.48 719.258L1201.45 706.576C1201.46 706.482 1201.51 706.395 1201.57 706.327C1201.64 706.26 1201.73 706.215 1201.82 706.199C1201.91 706.183 1202.01 706.196 1202.1 706.238C1202.18 706.28 1202.25 706.347 1202.3 706.431L1204.42 710.41L1199.48 719.258ZM1213.48 722.335L1211.6 710.664C1211.59 710.582 1211.55 710.506 1211.5 710.444C1211.44 710.381 1211.37 710.335 1211.29 710.309C1211.22 710.284 1211.13 710.281 1211.05 710.3C1210.97 710.319 1210.9 710.36 1210.84 710.418L1199 722.335L1205.55 726.026C1205.96 726.256 1206.46 726.256 1206.87 726.026L1213.48 722.335ZM1208.16 712.15L1206.64 709.247C1206.6 709.174 1206.54 709.113 1206.47 709.071C1206.4 709.028 1206.32 709.006 1206.24 709.006C1206.16 709.006 1206.08 709.028 1206.01 709.071C1205.94 709.113 1205.88 709.174 1205.84 709.247L1199.18 721.184L1208.16 712.15Z" fill="#FF7C7C"/>
<path fill-rule="evenodd" clip-rule="evenodd" d="M31 623.237C24.945 623.237 20.043 628.114 20.043 634.12C20.043 638.53 22.686 642.325 26.49 644.032C26.888 644.211 27.277 644.14 27.581 643.912C27.7491 643.781 27.8846 643.613 27.9769 643.421C28.0692 643.229 28.1158 643.018 28.113 642.805V642.235L26.756 642.051C26.746 642.05 26.7359 642.048 26.726 642.046C25.978 641.9 25.473 641.637 25.103 641.258C24.792 640.939 24.602 640.557 24.441 640.233L24.385 640.12C24.2362 639.81 24.0737 639.506 23.898 639.21C23.763 638.996 23.658 638.886 23.554 638.817C23.29 638.642 23.036 638.345 23.036 637.974C23.0351 637.867 23.058 637.762 23.1029 637.665C23.1479 637.568 23.2138 637.482 23.296 637.414C23.4511 637.291 23.6443 637.227 23.842 637.232C24.064 637.232 24.273 637.3 24.447 637.378C24.625 637.458 24.802 637.564 24.967 637.674C25.369 637.942 25.765 638.259 26.1 638.65C26.449 639.056 26.696 639.314 27.068 639.367C27.374 639.411 27.686 639.412 27.929 639.401C27.9628 639.209 28.0185 639.021 28.095 638.841C27.7982 638.772 27.5054 638.686 27.218 638.585C26.564 638.353 25.835 637.992 25.345 637.445C24.807 636.843 24.474 636.306 24.288 635.678C24.107 635.066 24.077 634.403 24.077 633.587C24.077 632.337 24.618 631.284 25.024 630.725C24.868 630.236 24.7559 629.733 24.689 629.224C24.6447 628.903 24.645 628.577 24.69 628.256C24.74 627.963 24.865 627.603 25.194 627.386C25.511 627.175 25.883 627.184 26.173 627.238C26.474 627.295 26.787 627.42 27.075 627.563C27.544 627.795 28.01 628.105 28.359 628.368C28.961 628.191 30.026 627.963 30.989 627.942H31.011C31.975 627.963 32.992 628.191 33.579 628.367C33.929 628.105 34.394 627.794 34.862 627.563C35.15 627.42 35.462 627.295 35.764 627.238C36.054 627.184 36.426 627.175 36.744 627.385C37.072 627.603 37.198 627.963 37.247 628.256C37.298 628.561 37.286 628.902 37.247 629.224C37.1804 629.733 37.0686 630.236 36.913 630.725C37.319 631.285 37.86 632.338 37.86 633.587C37.86 634.403 37.83 635.066 37.65 635.677C37.463 636.307 37.13 636.843 36.592 637.445C36.102 637.992 35.373 638.353 34.719 638.585C34.3718 638.707 34.0171 638.806 33.657 638.882C33.78 639.254 33.824 639.555 33.824 639.728V642.818C33.824 643.288 34.043 643.689 34.354 643.923C34.656 644.152 35.044 644.223 35.442 644.049C39.282 642.357 41.956 638.552 41.956 634.119C41.956 628.114 37.056 623.237 31 623.237ZM28.476 640.402C28.216 640.439 28.475 640.402 28.475 640.402H28.472L28.464 640.404L28.435 640.408C28.2865 640.426 28.1374 640.438 27.988 640.445C27.706 640.458 27.319 640.459 26.922 640.402C26.131 640.29 25.65 639.73 25.339 639.366L25.309 639.332C25.2073 639.214 25.0981 639.103 24.982 638.999C25.085 639.189 25.192 639.401 25.307 639.629L25.317 639.649L25.368 639.753C25.543 640.101 25.658 640.333 25.849 640.527C26.035 640.717 26.325 640.901 26.911 641.017L28.705 641.26C28.8303 641.277 28.9452 641.339 29.0283 641.434C29.1114 641.529 29.1572 641.652 29.157 641.778V642.805C29.157 643.605 28.782 644.318 28.207 644.75C27.9051 644.981 27.546 645.125 27.1683 645.166C26.7907 645.208 26.4089 645.146 26.064 644.986C21.902 643.119 19 638.962 19 634.12C19 627.528 24.377 622.192 31 622.192C37.623 622.192 43 627.528 43 634.12C43 638.987 40.061 643.155 35.863 645.006C35.5179 645.162 35.1367 645.222 34.7603 645.179C34.3839 645.135 34.0264 644.99 33.726 644.759C33.429 644.53 33.1891 644.236 33.0249 643.899C32.8608 643.562 32.777 643.192 32.78 642.817V639.727C32.78 639.657 32.731 639.253 32.458 638.71C32.4203 638.635 32.4013 638.552 32.4027 638.467C32.404 638.383 32.4256 638.301 32.4656 638.226C32.5056 638.152 32.5629 638.089 32.6326 638.042C32.7023 637.995 32.7824 637.965 32.866 637.955C33.209 637.917 33.787 637.806 34.37 637.599C34.964 637.389 35.497 637.101 35.814 636.747C36.285 636.221 36.52 635.817 36.649 635.38C36.783 634.927 36.817 634.4 36.817 633.587C36.817 632.446 36.217 631.487 35.941 631.178C35.8783 631.108 35.8356 631.023 35.8173 630.931C35.799 630.839 35.8058 630.744 35.837 630.655C35.977 630.261 36.147 629.648 36.212 629.101C36.244 628.826 36.246 628.596 36.218 628.43C36.2117 628.369 36.1934 628.311 36.164 628.257C36.0952 628.245 36.0246 628.248 35.957 628.266C35.787 628.298 35.57 628.378 35.324 628.5C34.834 628.742 34.324 629.1 34.008 629.356C33.9383 629.413 33.8552 629.45 33.7667 629.465C33.6782 629.48 33.5874 629.472 33.503 629.441C32.6933 629.176 31.8511 629.024 31 628.988C29.993 629.012 28.831 629.298 28.434 629.441C28.3496 629.472 28.2588 629.48 28.1703 629.465C28.0818 629.45 27.9987 629.413 27.929 629.356C27.5203 629.027 27.0794 628.74 26.613 628.5C26.4127 628.395 26.1996 628.316 25.979 628.266C25.9118 628.248 25.8415 628.245 25.773 628.257C25.7436 628.311 25.7252 628.369 25.719 628.43C25.691 628.596 25.693 628.826 25.725 629.101C25.79 629.648 25.961 630.261 26.1 630.655C26.163 630.835 26.124 631.035 25.996 631.178C25.72 631.487 25.12 632.446 25.12 633.587C25.12 634.399 25.154 634.927 25.288 635.38C25.418 635.817 25.652 636.22 26.122 636.747C26.44 637.101 26.972 637.389 27.567 637.599C28.0538 637.771 28.5577 637.891 29.07 637.955C29.1754 637.966 29.2749 638.01 29.3552 638.079C29.4354 638.148 29.4928 638.24 29.5195 638.343C29.5462 638.445 29.541 638.553 29.5047 638.653C29.4683 638.753 29.4025 638.839 29.316 638.9C29.151 639.018 29.042 639.23 28.981 639.475C28.9495 639.601 28.9307 639.73 28.925 639.86V639.879C28.9263 640.006 28.8814 640.129 28.7989 640.225C28.7163 640.321 28.6015 640.384 28.476 640.402Z" fill="#FFD082"/>
<path d="M775.572 784L770.582 794.154L780.735 799.144" stroke="#FFD082" stroke-width="2" stroke-linecap="round" stroke-linejoin="round"/>
</svg>
