<svg width="24" height="22" viewBox="0 0 24 22" fill="none" xmlns="http://www.w3.org/2000/svg">
<path d="M24 10.8811C24 9.29108 22.009 7.78408 18.956 6.85008C19.661 3.73908 19.348 1.26308 17.968 0.470078C17.6336 0.282798 17.2552 0.18853 16.872 0.197078V1.28708C17.097 1.28708 17.278 1.33208 17.43 1.41508C18.095 1.79708 18.384 3.24908 18.159 5.11808C18.105 5.57808 18.017 6.06208 17.909 6.55608C16.8866 6.30971 15.849 6.13165 14.803 6.02308C14.1799 5.16337 13.5 4.34622 12.768 3.57708C14.363 2.09508 15.86 1.28308 16.878 1.28308V0.192078C15.532 0.192078 13.771 1.15108 11.99 2.81408C10.21 1.16208 8.448 0.212078 7.103 0.212078V1.30208C8.116 1.30208 9.618 2.11008 11.213 3.58208C10.528 4.30208 9.843 5.11808 9.192 6.02308C8.14383 6.13045 7.10435 6.31021 6.081 6.56108C5.968 6.07208 5.885 5.59808 5.826 5.14308C5.596 3.27308 5.88 1.82108 6.541 1.43508C6.687 1.34708 6.878 1.30708 7.103 1.30708V0.217078C6.693 0.217078 6.32 0.305078 5.998 0.490078C4.623 1.28308 4.315 3.75308 5.024 6.85508C1.981 7.79508 0 9.29608 0 10.8811C0 12.4711 1.991 13.9781 5.044 14.9111C4.339 18.0231 4.652 20.4991 6.032 21.2911C6.35 21.4771 6.722 21.5651 7.132 21.5651C8.478 21.5651 10.239 20.6061 12.02 18.9431C13.8 20.5961 15.561 21.5451 16.907 21.5451C17.2931 21.5532 17.6744 21.4587 18.012 21.2711C19.387 20.4791 19.695 18.0091 18.986 14.9071C22.019 13.9731 24 12.4661 24 10.8811ZM17.63 7.61808C17.44 8.27193 17.2197 8.91663 16.97 9.55008C16.5612 8.75483 16.1123 7.98084 15.625 7.23108C16.32 7.33408 16.99 7.46108 17.631 7.61808H17.63ZM15.39 12.8281C15.009 13.4881 14.617 14.1151 14.211 14.6971C12.7433 14.8264 11.267 14.8281 9.799 14.7021C8.95695 13.4993 8.22054 12.2258 7.598 10.8961C8.21958 9.56318 8.95287 8.28529 9.79 7.07608C11.2574 6.94645 12.7333 6.94444 14.201 7.07008C14.607 7.65208 15.004 8.27408 15.385 8.93008C15.757 9.57008 16.095 10.2201 16.403 10.8761C16.0916 11.54 15.7536 12.1912 15.39 12.8281ZM16.97 12.1921C17.234 12.8471 17.46 13.5031 17.645 14.1391C17.005 14.2961 16.329 14.4281 15.63 14.5301C16.1152 13.7735 16.5625 12.9932 16.97 12.1921ZM12.01 17.4121C11.555 16.9421 11.1 16.4191 10.65 15.8461C11.09 15.8661 11.54 15.8811 11.995 15.8811C12.455 15.8811 12.91 15.8711 13.355 15.8461C12.915 16.4191 12.46 16.9421 12.01 17.4121ZM8.37 14.5301C7.69574 14.4324 7.02636 14.3036 6.364 14.1441C6.545 13.5131 6.77 12.8621 7.024 12.2121C7.225 12.6021 7.436 12.9941 7.666 13.3861C7.896 13.7771 8.13 14.1591 8.37 14.5301ZM11.985 4.35008C12.44 4.82008 12.895 5.34308 13.345 5.91608C12.905 5.89608 12.455 5.88108 12 5.88108C11.54 5.88108 11.085 5.89108 10.64 5.91608C11.08 5.34308 11.535 4.82008 11.985 4.35008ZM8.365 7.23208C7.87987 7.98701 7.43265 8.76564 7.025 9.56508C6.76821 8.92754 6.54294 8.27775 6.35 7.61808C6.99 7.46608 7.666 7.33408 8.365 7.23208ZM3.938 13.3561C2.206 12.6181 1.086 11.6491 1.086 10.8811C1.086 10.1131 2.206 9.13908 3.938 8.40608C4.358 8.22508 4.818 8.06308 5.293 7.91208C5.572 8.87008 5.939 9.86808 6.393 10.8911C5.96437 11.8533 5.60186 12.8436 5.308 13.8551C4.84345 13.7112 4.38624 13.5447 3.938 13.3561ZM6.57 20.3461C5.905 19.9661 5.616 18.5121 5.841 16.6441C5.895 16.1841 5.983 15.6991 6.091 15.2051C7.049 15.4401 8.096 15.6211 9.197 15.7391C9.82018 16.5988 10.5 17.4159 11.232 18.1851C9.637 19.6671 8.14 20.4791 7.122 20.4791C6.92994 20.4812 6.74033 20.4358 6.57 20.3471V20.3461ZM18.174 16.6191C18.404 18.4881 18.12 19.9411 17.459 20.3271C17.313 20.4151 17.122 20.4541 16.897 20.4541C15.884 20.4541 14.382 19.6471 12.787 18.1741C13.472 17.4561 14.157 16.6391 14.808 15.7341C15.8562 15.6267 16.8956 15.4469 17.919 15.1961C18.032 15.6901 18.119 16.1641 18.174 16.6191ZM20.057 13.3561C19.637 13.5371 19.177 13.6991 18.702 13.8501C18.403 12.8334 18.0355 11.8381 17.602 10.8711C18.052 9.85408 18.413 8.86108 18.687 7.90708C19.172 8.05808 19.631 8.22508 20.062 8.40608C21.794 9.14408 22.914 10.1131 22.914 10.8811C22.909 11.6491 21.789 12.6231 20.057 13.3561Z" fill="#88E1F2"/>
<path d="M11.995 13.1171C12.588 13.1171 13.1568 12.8815 13.5761 12.4622C13.9954 12.0428 14.231 11.4741 14.231 10.8811C14.231 10.2881 13.9954 9.71932 13.5761 9.29999C13.1568 8.88066 12.588 8.64508 11.995 8.64508C11.402 8.64508 10.8332 8.88066 10.4139 9.29999C9.99458 9.71932 9.759 10.2881 9.759 10.8811C9.759 11.4741 9.99458 12.0428 10.4139 12.4622C10.8332 12.8815 11.402 13.1171 11.995 13.1171Z" fill="#88E1F2"/>
</svg>
