<svg width="32" height="32" viewBox="0 0 32 32" fill="none" xmlns="http://www.w3.org/2000/svg">
<path d="M16.171 18.7C15.69 18.921 15.163 19.209 14.108 19.788C13.708 20.013 13.29 20.238 12.901 20.45C12.874 20.423 12.846 20.389 12.819 20.361C10.732 18.131 6.87201 16.556 7.03601 13.561C7.09701 12.47 7.47201 9.606 14.449 6.128C20.191 3.298 24.76 4.082 25.549 5.821C26.683 8.3 23.1 12.913 17.17 13.582C16.5137 13.7151 15.8359 13.699 15.1866 13.535C14.5373 13.3709 13.9333 13.063 13.419 12.634C13.105 12.293 13.058 12.273 12.942 12.341C12.751 12.441 12.874 12.75 12.942 12.927C13.1682 13.3365 13.4742 13.6966 13.842 13.9858C14.2097 14.2751 14.6317 14.4877 15.083 14.611C17.4166 15.1154 19.8497 14.8744 22.039 13.922C25.633 12.531 28.439 8.664 27.617 5.422C26.792 2.135 21.336 1.051 16.174 2.885C12.9413 3.9744 9.95454 5.68931 7.38401 7.932C4.54001 10.592 4.09001 12.904 4.27401 13.872C4.93601 17.309 9.67401 19.546 11.574 21.203C11.474 21.258 11.39 21.303 11.315 21.346C10.367 21.817 6.75301 23.706 5.85201 25.704C4.82901 27.968 6.01601 29.591 6.80001 29.809C7.98149 30.092 9.22187 29.999 10.3479 29.5429C11.474 29.0868 12.4295 28.2904 13.081 27.265C13.6343 26.4147 13.974 25.4433 14.0713 24.4335C14.1687 23.4237 14.0207 22.4053 13.64 21.465C13.8646 21.2858 14.1042 21.1263 14.356 20.988C14.84 20.702 15.301 20.42 15.71 20.202C17.1104 19.5461 18.6386 19.2083 20.185 19.213C23.431 19.595 24.072 21.62 23.949 22.473C23.8915 22.7756 23.7698 23.0624 23.5921 23.3141C23.4144 23.5658 23.1849 23.7765 22.919 23.932C22.694 24.075 22.619 24.123 22.639 24.225C22.666 24.375 22.775 24.368 22.966 24.341C23.4537 24.1869 23.8834 23.8888 24.1985 23.486C24.5137 23.0832 24.6997 22.5944 24.732 22.084C24.832 20.084 22.925 17.89 19.549 17.91C18.5381 17.9117 17.5373 18.1111 16.603 18.497C16.453 18.559 16.3073 18.6257 16.166 18.697L16.171 18.7ZM11.346 26.539C10.268 27.712 8.76801 28.155 8.12001 27.78C7.42001 27.38 7.69701 25.645 9.02001 24.404C9.80357 23.698 10.6505 23.0657 11.55 22.515C11.707 22.415 11.939 22.283 12.218 22.115L12.293 22.074L12.457 21.974C12.693 22.7651 12.7144 23.6047 12.5192 24.4068C12.324 25.209 11.9191 25.9448 11.346 26.539Z" fill="#FFD082"/>
</svg>
