<svg width="24" height="29" viewBox="0 0 24 29" fill="none" xmlns="http://www.w3.org/2000/svg">
<path d="M12.171 17.7C11.69 17.921 11.163 18.209 10.108 18.788C9.70801 19.013 9.29001 19.238 8.90101 19.45C8.87401 19.423 8.84601 19.389 8.81901 19.361C6.73201 17.131 2.87201 15.556 3.03601 12.561C3.09701 11.47 3.47201 8.606 10.449 5.128C16.191 2.298 20.76 3.082 21.549 4.821C22.683 7.3 19.1 11.913 13.17 12.582C12.5137 12.7151 11.8359 12.699 11.1866 12.535C10.5373 12.3709 9.93326 12.063 9.41901 11.634C9.10501 11.293 9.05801 11.273 8.94201 11.341C8.75101 11.441 8.87401 11.75 8.94201 11.927C9.16821 12.3365 9.47422 12.6966 9.84196 12.9858C10.2097 13.2751 10.6317 13.4877 11.083 13.611C13.4166 14.1154 15.8497 13.8744 18.039 12.922C21.633 11.531 24.439 7.664 23.617 4.422C22.792 1.135 17.336 0.0510017 12.174 1.885C8.94128 2.9744 5.95454 4.68931 3.38401 6.932C0.540006 9.592 0.0900065 11.904 0.274006 12.872C0.936006 16.309 5.67401 18.546 7.57401 20.203C7.47401 20.258 7.39001 20.303 7.31501 20.346C6.36701 20.817 2.75301 22.706 1.85201 24.704C0.829007 26.968 2.01601 28.591 2.80001 28.809C3.98149 29.092 5.22187 28.999 6.34792 28.5429C7.47397 28.0868 8.42948 27.2904 9.08101 26.265C9.63428 25.4147 9.97402 24.4433 10.0713 23.4335C10.1687 22.4237 10.0207 21.4053 9.64001 20.465C9.86461 20.2858 10.1042 20.1263 10.356 19.988C10.84 19.702 11.301 19.42 11.71 19.202C13.1104 18.5461 14.6386 18.2083 16.185 18.213C19.431 18.595 20.072 20.62 19.949 21.473C19.8915 21.7756 19.7698 22.0624 19.5921 22.3141C19.4144 22.5658 19.1849 22.7765 18.919 22.932C18.694 23.075 18.619 23.123 18.639 23.225C18.666 23.375 18.775 23.368 18.966 23.341C19.4537 23.1869 19.8834 22.8888 20.1985 22.486C20.5137 22.0832 20.6997 21.5944 20.732 21.084C20.832 19.084 18.925 16.89 15.549 16.91C14.5381 16.9117 13.5373 17.1111 12.603 17.497C12.453 17.559 12.3073 17.6257 12.166 17.697L12.171 17.7ZM7.34601 25.539C6.26801 26.712 4.76801 27.155 4.12001 26.78C3.42001 26.38 3.69701 24.645 5.02001 23.404C5.80357 22.698 6.65048 22.0657 7.55001 21.515C7.70701 21.415 7.93901 21.283 8.21801 21.115L8.29301 21.074L8.45701 20.974C8.69296 21.7651 8.71443 22.6047 8.51922 23.4068C8.324 24.209 7.91911 24.9448 7.34601 25.539V25.539Z" fill="#CD6799"/>
</svg>
