<svg width="24" height="24" viewBox="0 0 24 24" fill="none" xmlns="http://www.w3.org/2000/svg">
<path d="M0.228015 8.37C0.228015 8.37 -0.355985 7.943 0.345015 7.375L1.98002 5.897C1.98002 5.897 2.44701 5.4 2.94201 5.833L18.023 17.375V22.909C18.023 22.909 18.016 23.779 16.913 23.683L0.227015 8.369L0.228015 8.37Z" fill="black"/>
<path d="M4.11601 11.937L0.22801 15.509C0.22801 15.509 -0.17199 15.809 0.22801 16.346L2.03301 18.006C2.03301 18.006 2.46201 18.471 3.09501 17.941L7.21601 14.783L4.11601 11.937Z" fill="black"/>
<path d="M10.94 11.966L18.07 6.464L18.023 0.959C18.023 0.959 17.718 -0.243 16.703 0.383L7.216 9.11L10.94 11.966V11.966Z" fill="black"/>
<path d="M16.912 23.69C17.326 24.118 17.828 23.978 17.828 23.978L23.384 21.211C24.095 20.721 23.995 20.113 23.995 20.113V3.588C23.995 2.862 23.26 2.611 23.26 2.611L18.444 0.264003C17.392 -0.392997 16.703 0.383003 16.703 0.383003C16.703 0.383003 17.589 -0.261997 18.023 0.959003V22.809C18.023 22.959 17.991 23.106 17.928 23.239C17.801 23.498 17.526 23.739 16.866 23.639L16.912 23.69V23.69Z" fill="black"/>
</svg>
