<svg width="15" height="21" viewBox="0 0 15 21" fill="none" xmlns="http://www.w3.org/2000/svg">
<path d="M2.89659 0.000648933L1.86188 2.42441H0.323547V4.60418H0.912165L1.51484 8.48155H0.573438L1.81842 15.6023L2.61666 15.5926L3.41938 20.7665H11.019L11.072 20.4219L11.8211 15.5919L12.5803 15.6016L13.8221 8.4809H12.9229L13.5217 4.60353H14.1679V2.42376H12.5337L11.4951 0L2.89659 0.000648933ZM3.34652 0.696954H11.0522L11.7073 2.23817H2.68632L3.34652 0.696954ZM1.00356 3.11747H13.4821V3.91436H1.00356V3.11747ZM1.38958 9.17396H13.0105L12.0083 14.8995L7.19203 14.8482L2.3917 14.8995L1.38958 9.17396Z" fill="#CCCCCC"/>
</svg>
