<svg width="28" height="21" viewBox="0 0 28 21" fill="none" xmlns="http://www.w3.org/2000/svg">
<path d="M23.7941 1.72264C22.0166 0.911916 20.141 0.333289 18.2141 0.00118274C18.1967 -0.00173938 18.1787 0.00078436 18.1628 0.00840704C18.1468 0.0160297 18.1336 0.028377 18.125 0.0437509C17.8835 0.469433 17.6162 1.02622 17.4295 1.46212C15.3524 1.14884 13.2396 1.14884 11.1625 1.46212C10.9542 0.976539 10.7185 0.502999 10.4567 0.0437509C10.4479 0.0285453 10.4347 0.0163403 10.4188 0.00874216C10.4029 0.00114398 10.385 -0.00149135 10.3676 0.00118274C8.44021 0.331512 6.56423 0.91044 4.78763 1.72264C4.77242 1.72841 4.75971 1.73924 4.75165 1.75329C1.19844 7.03004 0.223616 12.1774 0.701603 17.26C0.703317 17.2839 0.718735 17.3077 0.737581 17.323C2.80667 18.8463 5.121 20.0094 7.58188 20.7625C7.59926 20.768 7.61793 20.7678 7.63518 20.762C7.65244 20.7562 7.66737 20.745 7.67782 20.7302C8.2055 20.015 8.67492 19.2607 9.07924 18.4673C9.08766 18.4509 9.09055 18.4323 9.08746 18.4142C9.08437 18.3961 9.07548 18.3795 9.0621 18.3668C9.05325 18.3585 9.04275 18.3521 9.03127 18.3481C8.29314 18.0661 7.57828 17.7274 6.89317 17.335C6.87403 17.3242 6.8598 17.3065 6.85343 17.2856C6.84705 17.2647 6.84901 17.2421 6.85891 17.2226C6.86474 17.2099 6.87355 17.1988 6.8846 17.1902C7.02851 17.083 7.17243 16.9706 7.30948 16.8582C7.32159 16.8485 7.33612 16.8423 7.35151 16.8402C7.3669 16.8381 7.38257 16.8402 7.39686 16.8463C11.8838 18.8827 16.7407 18.8827 21.1728 16.8463C21.1876 16.8399 21.2039 16.8376 21.2199 16.8397C21.2359 16.8418 21.251 16.8482 21.2636 16.8582C21.4007 16.9706 21.5446 17.083 21.6885 17.1902C21.7002 17.1987 21.7095 17.2099 21.7158 17.2229C21.722 17.2358 21.7249 17.2501 21.7242 17.2644C21.7236 17.2788 21.7193 17.2927 21.7119 17.305C21.7045 17.3173 21.6941 17.3276 21.6817 17.335C20.9981 17.731 20.2823 18.0693 19.5419 18.3464C19.53 18.3506 19.5193 18.3574 19.5104 18.3662C19.5016 18.3751 19.4947 18.3857 19.4905 18.3975C19.4865 18.4088 19.4849 18.4209 19.4858 18.4329C19.4867 18.4449 19.49 18.4566 19.4956 18.4673C19.9068 19.259 20.3779 20.015 20.8953 20.7302C20.9057 20.745 20.9207 20.7562 20.9379 20.762C20.9552 20.7678 20.9739 20.768 20.9912 20.7625C23.4562 20.0117 25.7743 18.8485 27.8458 17.323C27.8562 17.3159 27.8648 17.3065 27.871 17.2956C27.8773 17.2847 27.8809 17.2725 27.8818 17.26C28.454 11.3839 26.9241 6.27914 23.8283 1.75499C23.8252 1.74752 23.8205 1.74078 23.8146 1.73521C23.8087 1.72964 23.8017 1.72535 23.7941 1.72264ZM9.7491 14.1645C8.39738 14.1645 7.2855 12.9317 7.2855 11.4197C7.2855 9.90595 8.37682 8.67318 9.7491 8.67318C11.1317 8.67318 12.2333 9.91617 12.2127 11.4197C12.2127 12.9317 11.1214 14.1645 9.7491 14.1645ZM18.8566 14.1645C17.5066 14.1645 16.393 12.9317 16.393 11.4197C16.393 9.90595 17.4843 8.67318 18.8566 8.67318C20.2391 8.67318 21.3424 9.91617 21.3202 11.4197C21.3202 12.9317 20.2391 14.1645 18.8566 14.1645Z" fill="#CCCCCC"/>
</svg>
