<svg width="22" height="21" viewBox="0 0 22 21" fill="none" xmlns="http://www.w3.org/2000/svg">
<path d="M11.1738 0C14.0432 0 16.4911 1.03932 18.5175 3.11797C20.5439 5.19661 21.5571 7.6993 21.5571 10.626C21.5571 12.9541 20.8924 15.0411 19.5631 16.8869C18.2338 18.7327 16.5316 20.0215 14.4566 20.7532C14.0027 20.8197 13.7757 20.6368 13.7757 20.2044V17.311C13.7757 16.413 13.5326 15.7478 13.0462 15.3155C14.4728 15.1492 15.6157 14.7002 16.4749 13.9685C17.3341 13.2368 17.7637 11.9564 17.7637 10.1272C17.7637 8.99637 17.407 8.03188 16.6937 7.23368C17.0504 6.36897 17.018 5.4211 16.5965 4.3901C16.0129 4.22381 15.0726 4.58965 13.7757 5.48762C12.9327 5.25481 12.0573 5.13841 11.1495 5.13841C10.2417 5.13841 9.3825 5.25481 8.57194 5.48762C7.98834 5.08852 7.46148 4.79751 6.99136 4.61459C6.52123 4.43167 6.1889 4.35684 5.99437 4.3901H5.70257C5.3135 5.4211 5.28108 6.36897 5.6053 7.23368C4.89201 8.03188 4.53537 8.99637 4.53537 10.1272C4.53537 11.9564 4.97307 13.2368 5.84847 13.9685C6.72387 14.7002 7.85865 15.1492 9.25281 15.3155C8.89617 15.648 8.68542 16.1303 8.62058 16.7622C7.25884 17.3608 6.25375 17.0615 5.6053 15.8642C5.21623 15.199 4.68127 14.8332 4.0004 14.7667C3.93555 14.7667 3.8626 14.775 3.78155 14.7916C3.70049 14.8083 3.61944 14.8665 3.53838 14.9662C3.45732 15.066 3.59512 15.2157 3.95176 15.4152C4.40568 15.648 4.77853 16.1635 5.07033 16.9617C5.10276 17.0283 5.13518 17.1031 5.1676 17.1862C5.20002 17.2694 5.3054 17.4274 5.48372 17.6602C5.66204 17.893 5.87279 18.0676 6.11595 18.184C6.35912 18.3004 6.69145 18.4085 7.11294 18.5083C7.53443 18.608 8.02076 18.5748 8.57194 18.4085V20.2044C8.57194 20.6368 8.34499 20.8197 7.89107 20.7532C5.81605 20.0215 4.11388 18.7327 2.78456 16.8869C1.45525 15.0411 0.790588 12.9541 0.790588 10.626C0.790588 7.6993 1.80379 5.19661 3.83018 3.11797C5.85657 1.03932 8.30446 0 11.1738 0Z" fill="#CCCCCC"/>
</svg>
