<svg width="22" height="21" viewBox="0 0 22 21" fill="none" xmlns="http://www.w3.org/2000/svg">
<path d="M15.7716 10.6514C15.5123 10.3101 15.0259 10.1395 14.3126 10.1395C13.4372 10.1395 12.8212 10.3995 12.4646 10.9195C12.1079 11.4394 11.9296 12.1707 11.9296 13.1131V20.2303C11.9296 20.3928 11.881 20.5228 11.7837 20.6202C11.6864 20.7177 11.5567 20.7665 11.3946 20.7665H7.69849C7.5688 20.7665 7.44722 20.7177 7.33374 20.6202C7.22026 20.5228 7.16352 20.3928 7.16352 20.2303V7.06841C7.16352 6.93841 7.22026 6.81654 7.33374 6.7028C7.44722 6.58906 7.5688 6.53218 7.69849 6.53218H11.2974C11.4271 6.53218 11.5324 6.56468 11.6135 6.62968C11.6945 6.69467 11.7513 6.79217 11.7837 6.92216V7.1659C11.8161 7.2309 11.8323 7.34464 11.8323 7.50714C12.7402 6.62968 13.9722 6.19095 15.5285 6.19095C17.2469 6.19095 18.5924 6.62968 19.5651 7.50714C20.5377 8.38459 21.0241 9.66828 21.0241 11.3582V20.2303C21.0241 20.3928 20.9673 20.5228 20.8538 20.6202C20.7404 20.7177 20.6188 20.7665 20.4891 20.7665H16.6957C16.566 20.7665 16.4444 20.7177 16.3309 20.6202C16.2175 20.5228 16.1607 20.3928 16.1607 20.2303V12.2357C16.1607 11.5207 16.031 10.9926 15.7716 10.6514ZM4.53731 4.31417C4.05098 4.81789 3.45927 5.06975 2.76219 5.06975C2.06511 5.06975 1.47341 4.81789 0.98707 4.31417C0.500736 3.81044 0.257568 3.20922 0.257568 2.5105C0.257568 1.81179 0.500736 1.21869 0.98707 0.731214C1.47341 0.243738 2.06511 0 2.76219 0C3.45927 0 4.05098 0.243738 4.53731 0.731214C5.02365 1.21869 5.26682 1.81179 5.26682 2.5105C5.26682 3.20922 5.02365 3.81044 4.53731 4.31417ZM5.16955 7.06841V20.2303C5.16955 20.3928 5.11281 20.5228 4.99933 20.6202C4.88585 20.7177 4.76427 20.7665 4.63458 20.7665H0.938437C0.776325 20.7665 0.646636 20.7177 0.549369 20.6202C0.452102 20.5228 0.403469 20.3928 0.403469 20.2303V7.06841C0.403469 6.93841 0.452102 6.81654 0.549369 6.7028C0.646636 6.58906 0.776325 6.53218 0.938437 6.53218H4.63458C4.76427 6.53218 4.88585 6.58906 4.99933 6.7028C5.11281 6.81654 5.16955 6.93841 5.16955 7.06841Z" fill="#CCCCCC"/>
</svg>
