<svg width="27" height="21" viewBox="0 0 27 21" fill="none" xmlns="http://www.w3.org/2000/svg">
<path d="M23.8163 5.16161V5.82182C23.8163 7.62238 23.4819 9.39294 22.8132 11.1335C22.1445 12.874 21.1921 14.4645 19.956 15.905C18.7199 17.3454 17.119 18.5158 15.1534 19.4161C13.1878 20.3164 11.0297 20.7665 8.6791 20.7665C5.72056 20.7665 3.00519 19.9862 0.53299 18.4258C0.938268 18.4658 1.36381 18.4858 1.80962 18.4858C4.28182 18.4858 6.49059 17.7455 8.43593 16.2651C7.26062 16.2251 6.21703 15.865 5.30515 15.1847C4.39327 14.5045 3.77522 13.6443 3.451 12.6039C3.77522 12.684 4.09944 12.724 4.42367 12.724C4.91 12.724 5.37607 12.644 5.82188 12.4839C4.60604 12.2438 3.59284 11.6436 2.78229 10.6833C1.97173 9.72304 1.56645 8.62269 1.56645 7.38231V7.32229C2.33648 7.72241 3.14704 7.94248 3.99812 7.98249C2.41754 6.90216 1.62724 5.4417 1.62724 3.60113C1.62724 2.64083 1.87041 1.76055 2.35674 0.9603C3.69416 2.5608 5.30515 3.8412 7.18969 4.8015C9.07424 5.7618 11.1108 6.30197 13.2993 6.42201C13.2182 6.02188 13.1777 5.62176 13.1777 5.22163C13.1777 3.78118 13.6944 2.5508 14.7279 1.53048C15.7613 0.510159 17.0076 0 18.4666 0C20.0066 0 21.3035 0.540169 22.3573 1.62051C23.5731 1.38043 24.7079 0.9603 25.7616 0.360113C25.3563 1.6005 24.566 2.5608 23.3907 3.24101C24.485 3.12098 25.5184 2.86089 26.4911 2.46077C25.7616 3.50109 24.87 4.40138 23.8163 5.16161Z" fill="#CCCCCC"/>
</svg>
