<svg width="24" height="24" viewBox="0 0 24 24" fill="none" xmlns="http://www.w3.org/2000/svg">
<path fill-rule="evenodd" clip-rule="evenodd" d="M12 1.23708C5.945 1.23708 1.043 6.11408 1.043 12.1201C1.043 16.5301 3.686 20.3251 7.49 22.0321C7.888 22.2111 8.277 22.1401 8.581 21.9121C8.74912 21.7812 8.88464 21.6131 8.97694 21.421C9.06924 21.229 9.11581 21.0181 9.113 20.8051V20.2351L7.756 20.0511C7.74595 20.0497 7.73595 20.0481 7.726 20.0461C6.978 19.9001 6.473 19.6371 6.103 19.2581C5.792 18.9391 5.602 18.5571 5.441 18.2331L5.385 18.1201C5.2362 17.8097 5.0737 17.5061 4.898 17.2101C4.763 16.9961 4.658 16.8861 4.554 16.8171C4.29 16.6421 4.036 16.3451 4.036 15.9741C4.0351 15.8673 4.05796 15.7617 4.10293 15.6648C4.1479 15.5679 4.21385 15.4823 4.296 15.4141C4.45106 15.2913 4.6443 15.2269 4.842 15.2321C5.064 15.2321 5.273 15.3001 5.447 15.3781C5.625 15.4581 5.802 15.5641 5.967 15.6741C6.369 15.9421 6.765 16.2591 7.1 16.6501C7.449 17.0561 7.696 17.3141 8.068 17.3671C8.374 17.4111 8.686 17.4121 8.929 17.4011C8.96277 17.2087 9.01847 17.0208 9.095 16.8411C8.79821 16.7718 8.50544 16.6864 8.218 16.5851C7.564 16.3531 6.835 15.9921 6.345 15.4451C5.807 14.8431 5.474 14.3061 5.288 13.6781C5.107 13.0661 5.077 12.4031 5.077 11.5871C5.077 10.3371 5.618 9.28408 6.024 8.72508C5.86801 8.23568 5.7559 7.73336 5.689 7.22408C5.64469 6.90291 5.64503 6.57715 5.69 6.25608C5.74 5.96308 5.865 5.60308 6.194 5.38608C6.511 5.17508 6.883 5.18408 7.173 5.23808C7.474 5.29508 7.787 5.42008 8.075 5.56308C8.544 5.79508 9.01 6.10508 9.359 6.36808C9.961 6.19108 11.026 5.96308 11.989 5.94208H12.011C12.975 5.96308 13.992 6.19108 14.579 6.36708C14.929 6.10508 15.394 5.79408 15.862 5.56308C16.15 5.42008 16.462 5.29508 16.764 5.23808C17.054 5.18408 17.426 5.17508 17.744 5.38508C18.072 5.60308 18.198 5.96308 18.247 6.25608C18.298 6.56108 18.286 6.90208 18.247 7.22408C18.1804 7.73332 18.0686 8.23564 17.913 8.72508C18.319 9.28508 18.86 10.3381 18.86 11.5871C18.86 12.4031 18.83 13.0661 18.65 13.6771C18.463 14.3071 18.13 14.8431 17.592 15.4451C17.102 15.9921 16.373 16.3531 15.719 16.5851C15.3718 16.7071 15.0171 16.8063 14.657 16.8821C14.78 17.2541 14.824 17.5551 14.824 17.7281V20.8181C14.824 21.2881 15.043 21.6891 15.354 21.9231C15.656 22.1521 16.044 22.2231 16.442 22.0491C20.282 20.3571 22.956 16.5521 22.956 12.1191C22.956 6.11408 18.056 1.23708 12 1.23708ZM9.476 18.4021C9.216 18.4391 9.475 18.4021 9.475 18.4021H9.472L9.464 18.4041L9.435 18.4081C9.28647 18.4255 9.13738 18.4379 8.988 18.4451C8.706 18.4581 8.319 18.4591 7.922 18.4021C7.131 18.2901 6.65 17.7301 6.339 17.3661L6.309 17.3321C6.20732 17.2141 6.09809 17.1029 5.982 16.9991C6.085 17.1891 6.192 17.4011 6.307 17.6291L6.317 17.6491L6.368 17.7531C6.543 18.1011 6.658 18.3331 6.849 18.5271C7.035 18.7171 7.325 18.9011 7.911 19.0171L9.705 19.2601C9.8303 19.277 9.94518 19.3389 10.0283 19.4342C10.1114 19.5294 10.1572 19.6516 10.157 19.7781V20.8051C10.157 21.6051 9.782 22.3181 9.207 22.7501C8.90511 22.9808 8.54598 23.1246 8.16833 23.1662C7.79069 23.2078 7.40885 23.1455 7.064 22.9861C2.902 21.1191 0 16.9621 0 12.1201C0 5.52808 5.377 0.192078 12 0.192078C18.623 0.192078 24 5.52808 24 12.1201C24 16.9871 21.061 21.1551 16.863 23.0061C16.5179 23.1625 16.1367 23.2221 15.7603 23.1786C15.3839 23.1351 15.0264 22.9901 14.726 22.7591C14.429 22.5304 14.1891 22.2361 14.0249 21.8992C13.8608 21.5622 13.777 21.1919 13.78 20.8171V17.7271C13.78 17.6571 13.731 17.2531 13.458 16.7101C13.4203 16.6348 13.4013 16.5515 13.4027 16.4673C13.404 16.3831 13.4256 16.3005 13.4656 16.2264C13.5056 16.1524 13.5629 16.089 13.6326 16.0418C13.7023 15.9946 13.7824 15.9648 13.866 15.9551C14.209 15.9171 14.787 15.8061 15.37 15.5991C15.964 15.3891 16.497 15.1011 16.814 14.7471C17.285 14.2211 17.52 13.8171 17.649 13.3801C17.783 12.9271 17.817 12.4001 17.817 11.5871C17.817 10.4461 17.217 9.48708 16.941 9.17808C16.8783 9.10824 16.8356 9.02284 16.8173 8.93083C16.799 8.83881 16.8058 8.74357 16.837 8.65508C16.977 8.26108 17.147 7.64808 17.212 7.10108C17.244 6.82608 17.246 6.59608 17.218 6.43008C17.2117 6.36938 17.1934 6.31056 17.164 6.25708C17.0952 6.24516 17.0246 6.24823 16.957 6.26608C16.787 6.29808 16.57 6.37808 16.324 6.50008C15.834 6.74208 15.324 7.10008 15.008 7.35608C14.9383 7.41262 14.8552 7.45016 14.7667 7.46505C14.6782 7.47995 14.5874 7.47169 14.503 7.44108C13.6933 7.17623 12.8511 7.0238 12 6.98808C10.993 7.01208 9.831 7.29808 9.434 7.44108C9.34964 7.47169 9.2588 7.47995 9.17031 7.46505C9.08182 7.45016 8.99869 7.41262 8.929 7.35608C8.52034 7.02707 8.07942 6.74028 7.613 6.50008C7.41271 6.3949 7.19959 6.31624 6.979 6.26608C6.91177 6.24838 6.84152 6.24531 6.773 6.25708C6.74361 6.31055 6.72524 6.36938 6.719 6.43008C6.691 6.59608 6.693 6.82608 6.725 7.10108C6.79 7.64808 6.961 8.26108 7.1 8.65508C7.163 8.83508 7.124 9.03508 6.996 9.17808C6.72 9.48708 6.12 10.4461 6.12 11.5871C6.12 12.3991 6.154 12.9271 6.288 13.3801C6.418 13.8171 6.652 14.2201 7.122 14.7471C7.44 15.1011 7.972 15.3891 8.567 15.5991C9.05377 15.7713 9.55768 15.8907 10.07 15.9551C10.1754 15.9664 10.2749 16.0095 10.3552 16.0788C10.4354 16.148 10.4928 16.24 10.5195 16.3426C10.5462 16.4452 10.541 16.5535 10.5047 16.6531C10.4683 16.7526 10.4025 16.8388 10.316 16.9001C10.151 17.0181 10.042 17.2301 9.981 17.4751C9.94951 17.6012 9.93075 17.7302 9.925 17.8601V17.8791C9.92628 18.0059 9.88144 18.1288 9.79885 18.225C9.71626 18.3212 9.60152 18.3841 9.476 18.4021Z" fill="#FFD082"/>
</svg>
