<svg width="19" height="20" viewBox="0 0 19 20" fill="none" xmlns="http://www.w3.org/2000/svg">
<path d="M14.1008 18.0051C14.0301 18.0425 14.0361 18.0544 14.1037 18.02C14.1246 18.0115 14.1437 17.9992 14.1601 17.9838C14.1601 17.9713 14.1601 17.9713 14.1008 18.0051ZM14.2433 17.9279C14.2094 17.9559 14.2094 17.9559 14.2498 17.9374C14.2647 17.9305 14.2784 17.921 14.2902 17.9095C14.2902 17.8935 14.2807 17.8971 14.2433 17.9279ZM14.3359 17.8721C14.3021 17.9 14.3021 17.9 14.3424 17.8816C14.3574 17.8745 14.3711 17.8649 14.3828 17.8531C14.3828 17.8383 14.3733 17.8413 14.3359 17.8721ZM14.4297 17.8169C14.3959 17.8448 14.3959 17.8448 14.4351 17.8258C14.457 17.8139 14.4754 17.8015 14.4754 17.7979C14.4754 17.7831 14.4659 17.786 14.4297 17.8169ZM14.5562 17.7332C14.4915 17.7765 14.4689 17.8044 14.5283 17.7736C14.568 17.7492 14.6357 17.6958 14.6239 17.6958C14.5983 17.7053 14.577 17.7213 14.5556 17.7332H14.5562ZM8.87822 0.196442C8.83488 0.19941 8.70485 0.211285 8.59085 0.220785C5.89051 0.465407 3.36414 1.91889 1.76282 4.15789C0.877885 5.38589 0.302665 6.80948 0.0860926 8.30755C0.00949987 8.83004 0 8.98441 0 9.69275C0 10.4005 0.00949987 10.5525 0.0860926 11.075C0.603242 14.644 3.14208 17.64 6.58341 18.7503C7.20268 18.948 7.85164 19.0846 8.59085 19.1683C8.87822 19.1991 10.1209 19.1991 10.4083 19.1683C11.686 19.0258 12.7649 18.7105 13.8324 18.166C13.9963 18.0829 14.0271 18.0609 14.0052 18.0425C13.4844 17.3541 12.968 16.6624 12.4561 15.9674L10.9379 13.9172L9.03616 11.0999C8.40357 10.1566 7.76449 9.21769 7.11896 8.2832C7.11243 8.2832 7.10412 9.53541 7.10056 11.0625C7.09403 13.7373 7.09403 13.846 7.06018 13.9077C7.02773 13.9823 6.96958 14.0428 6.89631 14.0781C6.83753 14.106 6.78469 14.112 6.50385 14.112H6.18263L6.09892 14.0597C6.04648 14.0261 6.00387 13.9792 5.97542 13.9238L5.93504 13.84L5.93801 10.1167L5.94454 6.39332L6.00332 6.31911C6.04086 6.27348 6.08708 6.23574 6.13929 6.20808C6.21707 6.17067 6.24794 6.16473 6.56916 6.16473C6.94619 6.16473 7.00853 6.17958 7.10768 6.28823C7.87808 7.43408 8.64184 8.58437 9.39893 9.73906C10.6333 11.6105 12.3184 14.1642 13.1466 15.417L14.653 17.6964L14.7272 17.6471C15.4511 17.166 16.1071 16.5899 16.6776 15.9342C17.8743 14.5644 18.6509 12.8788 18.9142 11.0791C18.9908 10.5566 19.0003 10.4017 19.0003 9.69393C19.0003 8.9856 18.9908 8.8342 18.9142 8.3117C18.3971 4.74272 15.8582 1.7467 12.4169 0.635811C11.7738 0.43211 11.1118 0.29347 10.4409 0.221973C10.261 0.203567 9.03319 0.181598 8.87881 0.197629L8.87822 0.196442ZM12.7654 5.94208C12.8096 5.96377 12.849 5.99406 12.8813 6.03117C12.9137 6.06828 12.9382 6.11147 12.9537 6.1582C12.9697 6.20808 12.9727 7.24059 12.9697 9.56628L12.9632 12.9055L12.376 12.003L11.7852 11.0999V8.67567C11.7852 7.10403 11.7917 6.22292 11.8 6.17958C11.8291 6.08019 11.8958 5.99606 11.9859 5.94505C12.0595 5.90764 12.088 5.90468 12.3819 5.90468C12.6568 5.90468 12.7031 5.90764 12.7649 5.94208H12.7654Z" fill="#FF7C7C"/>
</svg>
